<svg version="1.1" viewBox="0.0 0.0 804.8162729658793 455.7270341207349" fill="none" stroke="none" stroke-linecap="square" stroke-miterlimit="10" xmlns:xlink="http://www.w3.org/1999/xlink" xmlns="http://www.w3.org/2000/svg"><clipPath id="p.0"><path d="m0 0l804.8163 0l0 455.72702l-804.8163 0l0 -455.72702z" clip-rule="nonzero"/></clipPath><g clip-path="url(#p.0)"><path fill="#000000" fill-opacity="0.0" d="m0 0l804.8163 0l0 455.72702l-804.8163 0z" fill-rule="evenodd"/><path fill="#000000" fill-opacity="0.0" d="m217.84251 12.7979l436.34644 0l0 416.0l-436.34644 0z" fill-rule="evenodd"/><path stroke="#000000" stroke-width="2.0" stroke-linejoin="round" stroke-linecap="butt" d="m217.84251 12.7979l436.34644 0l0 416.0l-436.34644 0z" fill-rule="evenodd"/><path fill="#000000" fill-opacity="0.0" d="m217.84251 12.7979l128.12599 0l0 25.385826l-128.12599 0z" fill-rule="evenodd"/><path stroke="#000000" stroke-width="1.0" stroke-linejoin="round" stroke-linecap="butt" d="m217.84251 12.7979l128.12599 0l0 25.385826l-128.12599 0z" fill-rule="evenodd"/><path fill="#000000" d="m241.85405 27.837688q0 1.1875 -0.875 1.890625q-0.875 0.6875 -2.328125 0.6875q-1.734375 0 -2.671875 -0.375l0 -0.671875q1.03125 0.4375 2.625 0.4375q1.171875 0 1.859375 -0.53125q0.6875 -0.546875 0.6875 -1.40625q0 -0.546875 -0.234375 -0.890625q-0.21875 -0.359375 -0.734375 -0.65625q-0.515625 -0.296875 -1.515625 -0.625q-1.453125 -0.515625 -2.015625 -1.09375q-0.546875 -0.578125 -0.546875 -1.546875q0 -1.0625 0.828125 -1.734375q0.84375 -0.6875 2.15625 -0.6875q1.34375 0 2.515625 0.515625l-0.234375 0.5625q-1.1875 -0.484375 -2.265625 -0.484375q-1.0625 0 -1.6875 0.484375q-0.625 0.484375 -0.625 1.328125q0 0.53125 0.1875 0.875q0.203125 0.328125 0.640625 0.609375q0.4375 0.265625 1.5 0.640625q1.109375 0.375 1.65625 0.75q0.5625 0.359375 0.8125 0.8125q0.265625 0.453125 0.265625 1.109375zm4.715912 2.578125q-1.546875 0 -2.40625 -0.9375q-0.859375 -0.953125 -0.859375 -2.671875q0 -1.6875 0.828125 -2.703125q0.828125 -1.015625 2.25 -1.015625q1.25 0 1.96875 0.875q0.71875 0.859375 0.71875 2.359375l0 0.515625l-5.09375 0q0.015625 1.46875 0.671875 2.234375q0.671875 0.765625 1.921875 0.765625q0.59375 0 1.046875 -0.078125q0.46875 -0.09375 1.171875 -0.375l0 0.59375q-0.59375 0.25 -1.109375 0.34375q-0.5 0.09375 -1.109375 0.09375zm-0.1875 -6.765625q-1.03125 0 -1.65625 0.671875q-0.609375 0.671875 -0.71875 1.953125l4.375 0q0 -1.234375 -0.53125 -1.921875q-0.53125 -0.703125 -1.46875 -0.703125zm8.93985 6.640625l-0.171875 -1.125l-0.046875 0q-0.53125 0.6875 -1.09375 0.96875q-0.5625 0.28125 -1.328125 0.28125q-1.046875 0 -1.625 -0.53125q-0.578125 -0.53125 -0.578125 -1.46875q0 -1.046875 0.859375 -1.609375q0.859375 -0.578125 2.5 -0.609375l1.34375 -0.03125l0 -0.46875q0 -1.015625 -0.421875 -1.53125q-0.40625 -0.515625 -1.3125 -0.515625q-0.984375 0 -2.03125 0.546875l-0.25 -0.5625q1.171875 -0.546875 2.3125 -0.546875q1.15625 0 1.734375 0.609375q0.578125 0.609375 0.578125 1.890625l0 4.703125l-0.46875 0zm-2.609375 -0.453125q1.140625 0 1.78125 -0.640625q0.65625 -0.65625 0.65625 -1.8125l0 -0.6875l-1.234375 0.046875q-1.484375 0.078125 -2.125 0.46875q-0.625 0.390625 -0.625 1.21875q0 0.671875 0.40625 1.046875q0.40625 0.359375 1.140625 0.359375zm8.1548 -6.75q0.453125 0 0.96875 0.078125l-0.125 0.625q-0.453125 -0.109375 -0.921875 -0.109375q-0.90625 0 -1.484375 0.765625q-0.578125 0.765625 -0.578125 1.9375l0 3.90625l-0.640625 0l0 -7.078125l0.546875 0l0.0625 1.28125l0.046875 0q0.4375 -0.78125 0.921875 -1.09375q0.5 -0.3125 1.203125 -0.3125zm5.233673 7.328125q-1.515625 0 -2.375 -0.953125q-0.859375 -0.953125 -0.859375 -2.671875q0 -1.75 0.890625 -2.71875q0.890625 -0.984375 2.4375 -0.984375q0.921875 0 1.75 0.3125l-0.171875 0.578125q-0.921875 -0.3125 -1.59375 -0.3125q-1.296875 0 -1.96875 0.8125q-0.671875 0.796875 -0.671875 2.3125q0 1.421875 0.671875 2.234375q0.671875 0.8125 1.875 0.8125q0.953125 0 1.78125 -0.34375l0 0.59375q-0.671875 0.328125 -1.765625 0.328125zm8.441528 -0.125l0 -4.59375q0 -1.0625 -0.453125 -1.546875q-0.453125 -0.484375 -1.390625 -0.484375q-1.28125 0 -1.875 0.640625q-0.578125 0.640625 -0.578125 2.078125l0 3.90625l-0.640625 0l0 -10.125l0.640625 0l0 3.21875l-0.03125 0.90625l0.046875 0q0.390625 -0.640625 1.0 -0.921875q0.609375 -0.28125 1.5 -0.28125q2.40625 0 2.40625 2.578125l0 4.625l-0.625 0zm5.939636 0.125q-1.625 0 -2.375 -1.21875l-0.046875 0l0.015625 0.546875q0.03125 0.484375 0.03125 1.046875l0 2.703125l-0.640625 0l0 -10.28125l0.546875 0l0.125 1.015625l0.03125 0q0.734375 -1.140625 2.328125 -1.140625q1.4375 0 2.1875 0.9375q0.75 0.9375 0.75 2.734375q0 1.734375 -0.796875 2.703125q-0.78125 0.953125 -2.15625 0.953125zm0 -0.5625q1.078125 0 1.671875 -0.8125q0.59375 -0.8125 0.59375 -2.25q0 -3.125 -2.25 -3.125q-1.234375 0 -1.8125 0.6875q-0.578125 0.671875 -0.578125 2.203125l0 0.21875q0 1.65625 0.546875 2.375q0.5625 0.703125 1.828125 0.703125zm7.7768555 0.5625q-1.546875 0 -2.40625 -0.9375q-0.859375 -0.953125 -0.859375 -2.671875q0 -1.6875 0.828125 -2.703125q0.828125 -1.015625 2.25 -1.015625q1.25 0 1.96875 0.875q0.71875 0.859375 0.71875 2.359375l0 0.515625l-5.09375 0q0.015625 1.46875 0.671875 2.234375q0.671875 0.765625 1.921875 0.765625q0.59375 0 1.046875 -0.078125q0.46875 -0.09375 1.171875 -0.375l0 0.59375q-0.59375 0.25 -1.109375 0.34375q-0.5 0.09375 -1.109375 0.09375zm-0.1875 -6.765625q-1.03125 0 -1.65625 0.671875q-0.609375 0.671875 -0.71875 1.953125l4.375 0q0 -1.234375 -0.53125 -1.921875q-0.53125 -0.703125 -1.46875 -0.703125zm7.424225 -0.5625q0.453125 0 0.96875 0.078125l-0.125 0.625q-0.453125 -0.109375 -0.921875 -0.109375q-0.90625 0 -1.484375 0.765625q-0.578125 0.765625 -0.578125 1.9375l0 3.90625l-0.640625 0l0 -7.078125l0.546875 0l0.0625 1.28125l0.046875 0q0.4375 -0.78125 0.921875 -1.09375q0.5 -0.3125 1.203125 -0.3125zm3.046173 7.203125l-0.640625 0l0 -7.078125l0.640625 0l0 7.078125zm-0.734375 -9.046875q0 -0.625 0.40625 -0.625q0.203125 0 0.3125 0.171875q0.125 0.15625 0.125 0.453125q0 0.296875 -0.125 0.46875q-0.109375 0.171875 -0.3125 0.171875q-0.40625 0 -0.40625 -0.640625zm5.966278 9.171875q-1.546875 0 -2.40625 -0.9375q-0.859375 -0.953125 -0.859375 -2.671875q0 -1.6875 0.828125 -2.703125q0.828125 -1.015625 2.25 -1.015625q1.25 0 1.96875 0.875q0.71875 0.859375 0.71875 2.359375l0 0.515625l-5.09375 0q0.015625 1.46875 0.671875 2.234375q0.671875 0.765625 1.921875 0.765625q0.59375 0 1.046875 -0.078125q0.46875 -0.09375 1.171875 -0.375l0 0.59375q-0.59375 0.25 -1.109375 0.34375q-0.5 0.09375 -1.109375 0.09375zm-0.1875 -6.765625q-1.03125 0 -1.65625 0.671875q-0.609375 0.671875 -0.71875 1.953125l4.375 0q0 -1.234375 -0.53125 -1.921875q-0.53125 -0.703125 -1.46875 -0.703125zm9.580475 6.640625l0 -4.59375q0 -1.0625 -0.453125 -1.546875q-0.453125 -0.484375 -1.390625 -0.484375q-1.28125 0 -1.875 0.640625q-0.578125 0.640625 -0.578125 2.078125l0 3.90625l-0.640625 0l0 -7.078125l0.546875 0l0.125 0.96875l0.03125 0q0.6875 -1.09375 2.453125 -1.09375q2.40625 0 2.40625 2.578125l0 4.625l-0.625 0zm5.752136 0.125q-1.515625 0 -2.375 -0.953125q-0.859375 -0.953125 -0.859375 -2.671875q0 -1.75 0.890625 -2.71875q0.890625 -0.984375 2.4375 -0.984375q0.921875 0 1.75 0.3125l-0.171875 0.578125q-0.921875 -0.3125 -1.59375 -0.3125q-1.296875 0 -1.96875 0.8125q-0.671875 0.796875 -0.671875 2.3125q0 1.421875 0.671875 2.234375q0.671875 0.8125 1.875 0.8125q0.953125 0 1.78125 -0.34375l0 0.59375q-0.671875 0.328125 -1.765625 0.328125zm6.3634033 0q-1.546875 0 -2.40625 -0.9375q-0.859375 -0.953125 -0.859375 -2.671875q0 -1.6875 0.828125 -2.703125q0.828125 -1.015625 2.25 -1.015625q1.25 0 1.96875 0.875q0.71875 0.859375 0.71875 2.359375l0 0.515625l-5.09375 0q0.015625 1.46875 0.671875 2.234375q0.671875 0.765625 1.921875 0.765625q0.59375 0 1.046875 -0.078125q0.46875 -0.09375 1.171875 -0.375l0 0.59375q-0.59375 0.25 -1.109375 0.34375q-0.5 0.09375 -1.109375 0.09375zm-0.1875 -6.765625q-1.03125 0 -1.65625 0.671875q-0.609375 0.671875 -0.71875 1.953125l4.375 0q0 -1.234375 -0.53125 -1.921875q-0.53125 -0.703125 -1.46875 -0.703125z" fill-rule="nonzero"/><path fill="#000000" fill-opacity="0.0" d="m401.46457 63.912075l0 0c0 -9.037323 17.933289 -16.363518 40.055115 -16.363518c22.121826 0 40.055115 7.326195 40.055115 16.363518l0 65.454056c0 9.037323 -17.933289 16.363525 -40.055115 16.363525c-22.121826 0 -40.055115 -7.3262024 -40.055115 -16.363525z" fill-rule="evenodd"/><path fill="#000000" fill-opacity="0.0" d="m481.5748 63.912075l0 0c0 9.037319 -17.933289 16.363514 -40.055115 16.363514c-22.121826 0 -40.055115 -7.326195 -40.055115 -16.363514" fill-rule="evenodd"/><path fill="#000000" fill-opacity="0.0" d="m401.46457 63.912075l0 0c0 -9.037323 17.933289 -16.363518 40.055115 -16.363518c22.121826 0 40.055115 7.326195 40.055115 16.363518l0 65.454056c0 9.037323 -17.933289 16.363525 -40.055115 16.363525c-22.121826 0 -40.055115 -7.3262024 -40.055115 -16.363525z" fill-rule="evenodd"/><path stroke="#000000" stroke-width="2.0" stroke-linejoin="round" stroke-linecap="butt" d="m481.5748 63.912075l0 0c0 9.037319 -17.933289 16.363514 -40.055115 16.363514c-22.121826 0 -40.055115 -7.326195 -40.055115 -16.363514" fill-rule="evenodd"/><path stroke="#000000" stroke-width="2.0" stroke-linejoin="round" stroke-linecap="butt" d="m401.46457 63.912075l0 0c0 -9.037323 17.933289 -16.363518 40.055115 -16.363518c22.121826 0 40.055115 7.326195 40.055115 16.363518l0 65.454056c0 9.037323 -17.933289 16.363525 -40.055115 16.363525c-22.121826 0 -40.055115 -7.3262024 -40.055115 -16.363525z" fill-rule="evenodd"/><path fill="#000000" d="m425.6768 98.11961q0 1.375 -1.0 2.15625q-1.0 0.765625 -2.71875 0.765625q-1.859375 0 -2.859375 -0.484375l0 -1.171875q0.640625 0.28125 1.390625 0.4375q0.765625 0.15625 1.515625 0.15625q1.203125 0 1.8125 -0.453125q0.625 -0.46875 0.625 -1.296875q0 -0.546875 -0.21875 -0.890625q-0.21875 -0.34375 -0.734375 -0.640625q-0.5 -0.296875 -1.546875 -0.65625q-1.46875 -0.53125 -2.09375 -1.234375q-0.625 -0.71875 -0.625 -1.875q0 -1.21875 0.90625 -1.921875q0.921875 -0.71875 2.40625 -0.71875q1.5625 0 2.875 0.5625l-0.375 1.0625q-1.296875 -0.546875 -2.53125 -0.546875q-0.953125 0 -1.5 0.421875q-0.546875 0.421875 -0.546875 1.15625q0 0.546875 0.203125 0.890625q0.203125 0.34375 0.671875 0.640625q0.484375 0.28125 1.453125 0.625q1.65625 0.59375 2.265625 1.265625q0.625 0.671875 0.625 1.75zm5.278137 2.921875q-1.75 0 -2.75 -1.046875q-1.0 -1.0625 -1.0 -2.953125q0 -1.890625 0.921875 -3.0q0.9375 -1.125 2.515625 -1.125q1.46875 0 2.328125 0.96875q0.859375 0.96875 0.859375 2.5625l0 0.75l-5.40625 0q0.046875 1.375 0.703125 2.09375q0.65625 0.71875 1.859375 0.71875q1.265625 0 2.515625 -0.53125l0 1.0625q-0.640625 0.265625 -1.203125 0.375q-0.546875 0.125 -1.34375 0.125zm-0.328125 -7.125q-0.9375 0 -1.5 0.609375q-0.5625 0.609375 -0.671875 1.703125l4.109375 0q0 -1.125 -0.5 -1.71875q-0.5 -0.59375 -1.4375 -0.59375zm10.050812 6.984375l-0.234375 -1.109375l-0.046875 0q-0.59375 0.734375 -1.1875 1.0q-0.578125 0.25 -1.453125 0.25q-1.15625 0 -1.828125 -0.59375q-0.65625 -0.609375 -0.65625 -1.71875q0 -2.375 3.796875 -2.484375l1.328125 -0.046875l0 -0.484375q0 -0.921875 -0.390625 -1.359375q-0.390625 -0.4375 -1.265625 -0.4375q-0.984375 0 -2.21875 0.59375l-0.375 -0.90625q0.578125 -0.3125 1.265625 -0.484375q0.703125 -0.1875 1.390625 -0.1875q1.40625 0 2.078125 0.625q0.6875 0.609375 0.6875 1.984375l0 5.359375l-0.890625 0zm-2.671875 -0.84375q1.109375 0 1.734375 -0.59375q0.640625 -0.609375 0.640625 -1.71875l0 -0.703125l-1.1875 0.046875q-1.421875 0.0625 -2.046875 0.453125q-0.625 0.375 -0.625 1.203125q0 0.640625 0.390625 0.984375q0.390625 0.328125 1.09375 0.328125zm9.588593 -7.140625q0.515625 0 0.9375 0.078125l-0.171875 1.109375q-0.484375 -0.109375 -0.859375 -0.109375q-0.953125 0 -1.625 0.78125q-0.671875 0.765625 -0.671875 1.921875l0 4.203125l-1.1875 0l0 -7.84375l0.96875 0l0.140625 1.453125l0.0625 0q0.4375 -0.765625 1.046875 -1.171875q0.609375 -0.421875 1.359375 -0.421875zm5.529602 8.125q-1.703125 0 -2.640625 -1.046875q-0.921875 -1.046875 -0.921875 -2.96875q0 -1.96875 0.9375 -3.03125q0.953125 -1.078125 2.703125 -1.078125q0.5625 0 1.125 0.125q0.578125 0.109375 0.890625 0.28125l-0.359375 1.015625q-0.390625 -0.171875 -0.859375 -0.265625q-0.46875 -0.109375 -0.828125 -0.109375q-2.390625 0 -2.390625 3.046875q0 1.453125 0.578125 2.234375q0.59375 0.765625 1.734375 0.765625q0.984375 0 2.015625 -0.421875l0 1.046875q-0.78125 0.40625 -1.984375 0.40625zm9.211853 -0.140625l0 -5.078125q0 -0.953125 -0.4375 -1.421875q-0.4375 -0.484375 -1.359375 -0.484375q-1.25 0 -1.8125 0.6875q-0.5625 0.671875 -0.5625 2.203125l0 4.09375l-1.1875 0l0 -11.140625l1.1875 0l0 3.375q0 0.609375 -0.0625 1.015625l0.078125 0q0.34375 -0.578125 0.984375 -0.890625q0.65625 -0.328125 1.484375 -0.328125q1.4375 0 2.15625 0.6875q0.71875 0.671875 0.71875 2.171875l0 5.109375l-1.1875 0z" fill-rule="nonzero"/><path fill="#000000" d="m425.73465 118.90086l-5.828125 0l0 -10.46875l5.828125 0l0 1.09375l-4.609375 0l0 3.359375l4.328125 0l0 1.078125l-4.328125 0l0 3.84375l4.609375 0l0 1.09375zm7.5104675 0l0 -5.078125q0 -0.953125 -0.4375 -1.421875q-0.4375 -0.484375 -1.359375 -0.484375q-1.234375 0 -1.8125 0.671875q-0.5625 0.671875 -0.5625 2.203125l0 4.109375l-1.1875 0l0 -7.84375l0.953125 0l0.203125 1.078125l0.046875 0q0.375 -0.578125 1.03125 -0.890625q0.65625 -0.328125 1.46875 -0.328125q1.421875 0 2.125 0.6875q0.71875 0.671875 0.71875 2.1875l0 5.109375l-1.1875 0zm10.04245 -7.84375l0 0.75l-1.453125 0.171875q0.203125 0.25 0.359375 0.65625q0.15625 0.40625 0.15625 0.90625q0 1.15625 -0.78125 1.84375q-0.78125 0.6875 -2.15625 0.6875q-0.359375 0 -0.65625 -0.0625q-0.765625 0.40625 -0.765625 1.015625q0 0.328125 0.265625 0.484375q0.265625 0.140625 0.90625 0.140625l1.390625 0q1.28125 0 1.953125 0.546875q0.6875 0.53125 0.6875 1.5625q0 1.296875 -1.046875 1.96875q-1.046875 0.6875 -3.046875 0.6875q-1.53125 0 -2.375 -0.578125q-0.828125 -0.5625 -0.828125 -1.609375q0 -0.71875 0.453125 -1.234375q0.453125 -0.515625 1.296875 -0.703125q-0.3125 -0.140625 -0.515625 -0.421875q-0.203125 -0.296875 -0.203125 -0.671875q0 -0.421875 0.234375 -0.75q0.234375 -0.328125 0.71875 -0.625q-0.609375 -0.25 -1.0 -0.84375q-0.375 -0.609375 -0.375 -1.375q0 -1.296875 0.765625 -1.984375q0.78125 -0.703125 2.203125 -0.703125q0.609375 0 1.109375 0.140625l2.703125 0zm-6.25 9.15625q0 0.640625 0.53125 0.96875q0.546875 0.328125 1.546875 0.328125q1.5 0 2.21875 -0.453125q0.71875 -0.4375 0.71875 -1.203125q0 -0.640625 -0.40625 -0.890625q-0.390625 -0.234375 -1.46875 -0.234375l-1.421875 0q-0.8125 0 -1.265625 0.375q-0.453125 0.390625 -0.453125 1.109375zm0.640625 -6.640625q0 0.8125 0.46875 1.234375q0.46875 0.421875 1.296875 0.421875q1.734375 0 1.734375 -1.6875q0 -1.765625 -1.75 -1.765625q-0.84375 0 -1.296875 0.453125q-0.453125 0.453125 -0.453125 1.34375zm8.420074 5.328125l-1.1875 0l0 -7.84375l1.1875 0l0 7.84375zm-1.296875 -9.96875q0 -0.40625 0.203125 -0.59375q0.203125 -0.1875 0.5 -0.1875q0.28125 0 0.484375 0.1875q0.21875 0.1875 0.21875 0.59375q0 0.40625 -0.21875 0.609375q-0.203125 0.1875 -0.484375 0.1875q-0.296875 0 -0.5 -0.1875q-0.203125 -0.203125 -0.203125 -0.609375zm9.175751 9.96875l0 -5.078125q0 -0.953125 -0.4375 -1.421875q-0.4375 -0.484375 -1.359375 -0.484375q-1.234375 0 -1.8125 0.671875q-0.5625 0.671875 -0.5625 2.203125l0 4.109375l-1.1875 0l0 -7.84375l0.953125 0l0.203125 1.078125l0.046875 0q0.375 -0.578125 1.03125 -0.890625q0.65625 -0.328125 1.46875 -0.328125q1.421875 0 2.125 0.6875q0.71875 0.671875 0.71875 2.1875l0 5.109375l-1.1875 0zm6.9486694 0.140625q-1.75 0 -2.75 -1.046875q-1.0 -1.0625 -1.0 -2.953125q0 -1.890625 0.921875 -3.0q0.9375 -1.125 2.515625 -1.125q1.46875 0 2.328125 0.96875q0.859375 0.96875 0.859375 2.5625l0 0.75l-5.40625 0q0.046875 1.375 0.703125 2.09375q0.65625 0.71875 1.859375 0.71875q1.265625 0 2.515625 -0.53125l0 1.0625q-0.640625 0.265625 -1.203125 0.375q-0.546875 0.125 -1.34375 0.125zm-0.328125 -7.125q-0.9375 0 -1.5 0.609375q-0.5625 0.609375 -0.671875 1.703125l4.109375 0q0 -1.125 -0.5 -1.71875q-0.5 -0.59375 -1.4375 -0.59375z" fill-rule="nonzero"/><path fill="#000000" fill-opacity="0.0" d="m242.2021 68.86089l124.40944 0l0 54.992126l-124.40944 0z" fill-rule="evenodd"/><path stroke="#000000" stroke-width="2.0" stroke-linejoin="round" stroke-linecap="butt" d="m242.2021 68.86089l124.40944 0l0 54.992126l-124.40944 0z" fill-rule="evenodd"/><path fill="#000000" d="m279.75934 101.43696l0 -10.46875l1.21875 0l0 10.46875l-1.21875 0zm9.273804 0l0 -5.078125q0 -0.953125 -0.4375 -1.421875q-0.4375 -0.484375 -1.359375 -0.484375q-1.234375 0 -1.8125 0.671875q-0.5625 0.671875 -0.5625 2.203125l0 4.109375l-1.1875 0l0 -7.84375l0.953125 0l0.203125 1.078125l0.046875 0q0.375 -0.578125 1.03125 -0.890625q0.65625 -0.328125 1.46875 -0.328125q1.421875 0 2.125 0.6875q0.71875 0.671875 0.71875 2.1875l0 5.109375l-1.1875 0zm8.964294 -1.046875l-0.0625 0q-0.828125 1.1875 -2.453125 1.1875q-1.546875 0 -2.40625 -1.046875q-0.84375 -1.046875 -0.84375 -3.0q0 -1.9375 0.859375 -3.0q0.859375 -1.078125 2.390625 -1.078125q1.59375 0 2.4375 1.15625l0.09375 0l-0.046875 -0.5625l-0.03125 -0.546875l0 -3.203125l1.1875 0l0 11.140625l-0.96875 0l-0.15625 -1.046875zm-2.375 0.1875q1.21875 0 1.765625 -0.65625q0.546875 -0.65625 0.546875 -2.140625l0 -0.25q0 -1.65625 -0.5625 -2.359375q-0.546875 -0.71875 -1.765625 -0.71875q-1.046875 0 -1.609375 0.8125q-0.546875 0.796875 -0.546875 2.28125q0 1.5 0.546875 2.265625q0.5625 0.765625 1.625 0.765625zm9.340637 1.0q-1.75 0 -2.75 -1.046875q-1.0 -1.0625 -1.0 -2.953125q0 -1.890625 0.921875 -3.0q0.9375 -1.125 2.515625 -1.125q1.46875 0 2.328125 0.96875q0.859375 0.96875 0.859375 2.5625l0 0.75l-5.40625 0q0.046875 1.375 0.703125 2.09375q0.65625 0.71875 1.859375 0.71875q1.265625 0 2.515625 -0.53125l0 1.0625q-0.640625 0.265625 -1.203125 0.375q-0.546875 0.125 -1.34375 0.125zm-0.328125 -7.125q-0.9375 0 -1.5 0.609375q-0.5625 0.609375 -0.671875 1.703125l4.109375 0q0 -1.125 -0.5 -1.71875q-0.5 -0.59375 -1.4375 -0.59375zm7.1289062 2.96875l-2.734375 -3.828125l1.359375 0l2.0625 3.0l2.0625 -3.0l1.34375 0l-2.734375 3.828125l2.875 4.015625l-1.34375 0l-2.203125 -3.171875l-2.21875 3.171875l-1.34375 0l2.875 -4.015625zm9.1006775 4.15625q-1.75 0 -2.75 -1.046875q-1.0 -1.0625 -1.0 -2.953125q0 -1.890625 0.921875 -3.0q0.9375 -1.125 2.515625 -1.125q1.46875 0 2.328125 0.96875q0.859375 0.96875 0.859375 2.5625l0 0.75l-5.40625 0q0.046875 1.375 0.703125 2.09375q0.65625 0.71875 1.859375 0.71875q1.265625 0 2.515625 -0.53125l0 1.0625q-0.640625 0.265625 -1.203125 0.375q-0.546875 0.125 -1.34375 0.125zm-0.328125 -7.125q-0.9375 0 -1.5 0.609375q-0.5625 0.609375 -0.671875 1.703125l4.109375 0q0 -1.125 -0.5 -1.71875q-0.5 -0.59375 -1.4375 -0.59375zm8.816406 -1.0q0.515625 0 0.9375 0.078125l-0.171875 1.109375q-0.484375 -0.109375 -0.859375 -0.109375q-0.953125 0 -1.625 0.78125q-0.671875 0.765625 -0.671875 1.921875l0 4.203125l-1.1875 0l0 -7.84375l0.96875 0l0.140625 1.453125l0.0625 0q0.4375 -0.765625 1.046875 -1.171875q0.609375 -0.421875 1.359375 -0.421875z" fill-rule="nonzero"/><path fill="#000000" fill-opacity="0.0" d="m375.7651 166.25197l131.49606 0l0 54.992126l-131.49606 0z" fill-rule="evenodd"/><path stroke="#000000" stroke-width="2.0" stroke-linejoin="round" stroke-linecap="butt" d="m375.7651 166.25197l131.49606 0l0 54.992126l-131.49606 0z" fill-rule="evenodd"/><path fill="#000000" d="m422.11932 189.29678q-1.734375 0 -2.734375 1.15625q-0.984375 1.140625 -0.984375 3.140625q0 2.0625 0.953125 3.1875q0.96875 1.109375 2.75 1.109375q1.09375 0 2.5 -0.390625l0 1.0625q-1.09375 0.40625 -2.6875 0.40625q-2.3125 0 -3.578125 -1.390625q-1.25 -1.40625 -1.25 -4.0q0 -1.609375 0.609375 -2.828125q0.609375 -1.21875 1.75 -1.875q1.140625 -0.65625 2.6875 -0.65625q1.640625 0 2.875 0.59375l-0.515625 1.046875q-1.1875 -0.5625 -2.375 -0.5625zm11.355408 5.609375q0 1.90625 -0.96875 2.984375q-0.96875 1.078125 -2.671875 1.078125q-1.046875 0 -1.875 -0.484375q-0.8125 -0.5 -1.25 -1.421875q-0.4375 -0.921875 -0.4375 -2.15625q0 -1.921875 0.953125 -2.984375q0.953125 -1.078125 2.65625 -1.078125q1.65625 0 2.625 1.09375q0.96875 1.09375 0.96875 2.96875zm-5.984375 0q0 1.5 0.59375 2.28125q0.609375 0.78125 1.78125 0.78125q1.171875 0 1.765625 -0.78125q0.609375 -0.78125 0.609375 -2.28125q0 -1.5 -0.609375 -2.28125q-0.59375 -0.78125 -1.78125 -0.78125q-1.171875 0 -1.765625 0.765625q-0.59375 0.765625 -0.59375 2.296875zm11.1961975 4.0625q-1.703125 0 -2.640625 -1.046875q-0.921875 -1.046875 -0.921875 -2.96875q0 -1.96875 0.9375 -3.03125q0.953125 -1.078125 2.703125 -1.078125q0.5625 0 1.125 0.125q0.578125 0.109375 0.890625 0.28125l-0.359375 1.015625q-0.390625 -0.171875 -0.859375 -0.265625q-0.46875 -0.109375 -0.828125 -0.109375q-2.390625 0 -2.390625 3.046875q0 1.453125 0.578125 2.234375q0.59375 0.765625 1.734375 0.765625q0.984375 0 2.015625 -0.421875l0 1.046875q-0.78125 0.40625 -1.984375 0.40625zm5.0243225 -4.15625q0.296875 -0.4375 0.9375 -1.140625l2.53125 -2.6875l1.40625 0l-3.171875 3.34375l3.390625 4.5l-1.4375 0l-2.765625 -3.703125l-0.890625 0.765625l0 2.9375l-1.171875 0l0 -11.140625l1.171875 0l0 5.90625q0 0.390625 -0.0625 1.21875l0.0625 0zm10.161865 4.15625q-0.765625 0 -1.40625 -0.28125q-0.625 -0.28125 -1.046875 -0.875l-0.09375 0q0.09375 0.6875 0.09375 1.3125l0 3.21875l-1.1875 0l0 -11.359375l0.953125 0l0.171875 1.078125l0.0625 0q0.453125 -0.640625 1.0625 -0.921875q0.609375 -0.296875 1.390625 -0.296875q1.5625 0 2.40625 1.0625q0.859375 1.0625 0.859375 3.0q0 1.921875 -0.875 3.0q-0.859375 1.0625 -2.390625 1.0625zm-0.171875 -7.125q-1.203125 0 -1.734375 0.671875q-0.53125 0.671875 -0.546875 2.125l0 0.265625q0 1.640625 0.546875 2.359375q0.546875 0.703125 1.765625 0.703125q1.015625 0 1.59375 -0.8125q0.578125 -0.828125 0.578125 -2.265625q0 -1.46875 -0.578125 -2.25q-0.578125 -0.796875 -1.625 -0.796875zm6.6999817 6.984375l-1.1875 0l0 -7.84375l1.1875 0l0 7.84375zm-1.296875 -9.96875q0 -0.40625 0.203125 -0.59375q0.203125 -0.1875 0.5 -0.1875q0.28125 0 0.484375 0.1875q0.21875 0.1875 0.21875 0.59375q0 0.40625 -0.21875 0.609375q-0.203125 0.1875 -0.484375 0.1875q-0.296875 0 -0.5 -0.1875q-0.203125 -0.203125 -0.203125 -0.609375zm6.3476257 9.125q0.3125 0 0.59375 -0.046875q0.296875 -0.046875 0.46875 -0.09375l0 0.90625q-0.1875 0.09375 -0.5625 0.15625q-0.375 0.0625 -0.671875 0.0625q-2.28125 0 -2.28125 -2.390625l0 -4.671875l-1.125 0l0 -0.578125l1.125 -0.484375l0.5 -1.671875l0.6875 0l0 1.8125l2.28125 0l0 0.921875l-2.28125 0l0 4.625q0 0.703125 0.328125 1.078125q0.34375 0.375 0.9375 0.375z" fill-rule="nonzero"/><path fill="#000000" fill-opacity="0.0" d="m507.26248 68.86089l141.51181 0l0 54.992126l-141.51181 0z" fill-rule="evenodd"/><path stroke="#000000" stroke-width="2.0" stroke-linejoin="round" stroke-linecap="butt" d="m507.26248 68.86089l141.51181 0l0 54.992126l-141.51181 0z" fill-rule="evenodd"/><path fill="#000000" d="m549.29034 101.43696l-1.21875 0l0 -10.46875l5.828125 0l0 1.09375l-4.609375 0l0 3.828125l4.328125 0l0 1.078125l-4.328125 0l0 4.46875zm9.75177 -7.984375q0.515625 0 0.9375 0.078125l-0.171875 1.109375q-0.484375 -0.109375 -0.859375 -0.109375q-0.953125 0 -1.625 0.78125q-0.671875 0.765625 -0.671875 1.921875l0 4.203125l-1.1875 0l0 -7.84375l0.96875 0l0.140625 1.453125l0.0625 0q0.4375 -0.765625 1.046875 -1.171875q0.609375 -0.421875 1.359375 -0.421875zm9.170227 4.0625q0 1.90625 -0.96875 2.984375q-0.96875 1.078125 -2.671875 1.078125q-1.046875 0 -1.875 -0.484375q-0.8125 -0.5 -1.25 -1.421875q-0.4375 -0.921875 -0.4375 -2.15625q0 -1.921875 0.953125 -2.984375q0.953125 -1.078125 2.65625 -1.078125q1.65625 0 2.625 1.09375q0.96875 1.09375 0.96875 2.96875zm-5.984375 0q0 1.5 0.59375 2.28125q0.609375 0.78125 1.78125 0.78125q1.171875 0 1.765625 -0.78125q0.609375 -0.78125 0.609375 -2.28125q0 -1.5 -0.609375 -2.28125q-0.59375 -0.78125 -1.78125 -0.78125q-1.171875 0 -1.765625 0.765625q-0.59375 0.765625 -0.59375 2.296875zm13.430603 3.921875l0 -5.078125q0 -0.953125 -0.4375 -1.421875q-0.4375 -0.484375 -1.359375 -0.484375q-1.234375 0 -1.8125 0.671875q-0.5625 0.671875 -0.5625 2.203125l0 4.109375l-1.1875 0l0 -7.84375l0.953125 0l0.203125 1.078125l0.046875 0q0.375 -0.578125 1.03125 -0.890625q0.65625 -0.328125 1.46875 -0.328125q1.421875 0 2.125 0.6875q0.71875 0.671875 0.71875 2.1875l0 5.109375l-1.1875 0zm6.1674194 -0.84375q0.3125 0 0.59375 -0.046875q0.296875 -0.046875 0.46875 -0.09375l0 0.90625q-0.1875 0.09375 -0.5625 0.15625q-0.375 0.0625 -0.671875 0.0625q-2.28125 0 -2.28125 -2.390625l0 -4.671875l-1.125 0l0 -0.578125l1.125 -0.484375l0.5 -1.671875l0.6875 0l0 1.8125l2.28125 0l0 0.921875l-2.28125 0l0 4.625q0 0.703125 0.328125 1.078125q0.34375 0.375 0.9375 0.375zm5.9553223 0.984375q-1.75 0 -2.75 -1.046875q-1.0 -1.0625 -1.0 -2.953125q0 -1.890625 0.921875 -3.0q0.9375 -1.125 2.515625 -1.125q1.46875 0 2.328125 0.96875q0.859375 0.96875 0.859375 2.5625l0 0.75l-5.40625 0q0.046875 1.375 0.703125 2.09375q0.65625 0.71875 1.859375 0.71875q1.265625 0 2.515625 -0.53125l0 1.0625q-0.640625 0.265625 -1.203125 0.375q-0.546875 0.125 -1.34375 0.125zm-0.328125 -7.125q-0.9375 0 -1.5 0.609375q-0.5625 0.609375 -0.671875 1.703125l4.109375 0q0 -1.125 -0.5 -1.71875q-0.5 -0.59375 -1.4375 -0.59375zm10.597656 6.984375l0 -5.078125q0 -0.953125 -0.4375 -1.421875q-0.4375 -0.484375 -1.359375 -0.484375q-1.234375 0 -1.8125 0.671875q-0.5625 0.671875 -0.5625 2.203125l0 4.109375l-1.1875 0l0 -7.84375l0.953125 0l0.203125 1.078125l0.046875 0q0.375 -0.578125 1.03125 -0.890625q0.65625 -0.328125 1.46875 -0.328125q1.421875 0 2.125 0.6875q0.71875 0.671875 0.71875 2.1875l0 5.109375l-1.1875 0zm8.964294 -1.046875l-0.0625 0q-0.828125 1.1875 -2.453125 1.1875q-1.546875 0 -2.40625 -1.046875q-0.84375 -1.046875 -0.84375 -3.0q0 -1.9375 0.859375 -3.0q0.859375 -1.078125 2.390625 -1.078125q1.59375 0 2.4375 1.15625l0.09375 0l-0.046875 -0.5625l-0.03125 -0.546875l0 -3.203125l1.1875 0l0 11.140625l-0.96875 0l-0.15625 -1.046875zm-2.375 0.1875q1.21875 0 1.765625 -0.65625q0.546875 -0.65625 0.546875 -2.140625l0 -0.25q0 -1.65625 -0.5625 -2.359375q-0.546875 -0.71875 -1.765625 -0.71875q-1.046875 0 -1.609375 0.8125q-0.546875 0.796875 -0.546875 2.28125q0 1.5 0.546875 2.265625q0.5625 0.765625 1.625 0.765625z" fill-rule="nonzero"/><path fill="#000000" fill-opacity="0.0" d="m237.96588 345.03702l141.51181 0l0 54.992126l-141.51181 0z" fill-rule="evenodd"/><path stroke="#000000" stroke-width="2.0" stroke-linejoin="round" stroke-linecap="butt" d="m237.96588 345.03702l141.51181 0l0 54.992126l-141.51181 0z" fill-rule="evenodd"/><path fill="#000000" d="m287.81906 377.61307l-1.21875 0l0 -9.375l-3.3125 0l0 -1.09375l7.84375 0l0 1.09375l-3.3125 0l0 9.375zm8.295654 -7.984375q0.515625 0 0.9375 0.078125l-0.171875 1.109375q-0.484375 -0.109375 -0.859375 -0.109375q-0.953125 0 -1.625 0.78125q-0.671875 0.765625 -0.671875 1.921875l0 4.203125l-1.1875 0l0 -7.84375l0.96875 0l0.140625 1.453125l0.0625 0q0.4375 -0.765625 1.046875 -1.171875q0.609375 -0.421875 1.359375 -0.421875zm7.217102 7.984375l-0.234375 -1.109375l-0.046875 0q-0.59375 0.734375 -1.1875 1.0q-0.578125 0.25 -1.453125 0.25q-1.15625 0 -1.828125 -0.59375q-0.65625 -0.609375 -0.65625 -1.71875q0 -2.375 3.796875 -2.484375l1.328125 -0.046875l0 -0.484375q0 -0.921875 -0.390625 -1.359375q-0.390625 -0.4375 -1.265625 -0.4375q-0.984375 0 -2.21875 0.59375l-0.375 -0.90625q0.578125 -0.3125 1.265625 -0.484375q0.703125 -0.1875 1.390625 -0.1875q1.40625 0 2.078125 0.625q0.6875 0.609375 0.6875 1.984375l0 5.359375l-0.890625 0zm-2.671875 -0.84375q1.109375 0 1.734375 -0.59375q0.640625 -0.609375 0.640625 -1.71875l0 -0.703125l-1.1875 0.046875q-1.421875 0.0625 -2.046875 0.453125q-0.625 0.375 -0.625 1.203125q0 0.640625 0.390625 0.984375q0.390625 0.328125 1.09375 0.328125zm9.135498 0.984375q-1.703125 0 -2.640625 -1.046875q-0.921875 -1.046875 -0.921875 -2.96875q0 -1.96875 0.9375 -3.03125q0.953125 -1.078125 2.703125 -1.078125q0.5625 0 1.125 0.125q0.578125 0.109375 0.890625 0.28125l-0.359375 1.015625q-0.390625 -0.171875 -0.859375 -0.265625q-0.46875 -0.109375 -0.828125 -0.109375q-2.390625 0 -2.390625 3.046875q0 1.453125 0.578125 2.234375q0.59375 0.765625 1.734375 0.765625q0.984375 0 2.015625 -0.421875l0 1.046875q-0.78125 0.40625 -1.984375 0.40625zm5.0243225 -4.15625q0.296875 -0.4375 0.9375 -1.140625l2.53125 -2.6875l1.40625 0l-3.171875 3.34375l3.390625 4.5l-1.4375 0l-2.765625 -3.703125l-0.890625 0.765625l0 2.9375l-1.171875 0l0 -11.140625l1.171875 0l0 5.90625q0 0.390625 -0.0625 1.21875l0.0625 0zm9.83374 4.15625q-1.75 0 -2.75 -1.046875q-1.0 -1.0625 -1.0 -2.953125q0 -1.890625 0.921875 -3.0q0.9375 -1.125 2.515625 -1.125q1.46875 0 2.328125 0.96875q0.859375 0.96875 0.859375 2.5625l0 0.75l-5.40625 0q0.046875 1.375 0.703125 2.09375q0.65625 0.71875 1.859375 0.71875q1.265625 0 2.515625 -0.53125l0 1.0625q-0.640625 0.265625 -1.203125 0.375q-0.546875 0.125 -1.34375 0.125zm-0.328125 -7.125q-0.9375 0 -1.5 0.609375q-0.5625 0.609375 -0.671875 1.703125l4.109375 0q0 -1.125 -0.5 -1.71875q-0.5 -0.59375 -1.4375 -0.59375zm8.816406 -1.0q0.515625 0 0.9375 0.078125l-0.171875 1.109375q-0.484375 -0.109375 -0.859375 -0.109375q-0.953125 0 -1.625 0.78125q-0.671875 0.765625 -0.671875 1.921875l0 4.203125l-1.1875 0l0 -7.84375l0.96875 0l0.140625 1.453125l0.0625 0q0.4375 -0.765625 1.046875 -1.171875q0.609375 -0.421875 1.359375 -0.421875z" fill-rule="nonzero"/><path fill="#000000" fill-opacity="0.0" d="m472.5433 345.03674l155.40158 0l0 54.992126l-155.40158 0z" fill-rule="evenodd"/><path stroke="#000000" stroke-width="2.0" stroke-linejoin="round" stroke-linecap="butt" d="m472.5433 345.03674l155.40158 0l0 54.992126l-155.40158 0z" fill-rule="evenodd"/><path fill="#000000" d="m492.1714 364.26907l0 4.34375l-1.21875 0l0 -10.46875l2.875 0q1.921875 0 2.84375 0.75q0.921875 0.734375 0.921875 2.21875q0 2.0625 -2.109375 2.796875l2.84375 4.703125l-1.4375 0l-2.53125 -4.34375l-2.1875 0zm0 -1.046875l1.671875 0q1.28125 0 1.875 -0.515625q0.609375 -0.515625 0.609375 -1.53125q0 -1.046875 -0.609375 -1.5q-0.609375 -0.453125 -1.96875 -0.453125l-1.578125 0l0 4.0zm10.981842 5.53125q-1.75 0 -2.75 -1.046875q-1.0 -1.0625 -1.0 -2.953125q0 -1.890625 0.921875 -3.0q0.9375 -1.125 2.515625 -1.125q1.46875 0 2.328125 0.96875q0.859375 0.96875 0.859375 2.5625l0 0.75l-5.40625 0q0.046875 1.375 0.703125 2.09375q0.65625 0.71875 1.859375 0.71875q1.265625 0 2.515625 -0.53125l0 1.0625q-0.640625 0.265625 -1.203125 0.375q-0.546875 0.125 -1.34375 0.125zm-0.328125 -7.125q-0.9375 0 -1.5 0.609375q-0.5625 0.609375 -0.671875 1.703125l4.109375 0q0 -1.125 -0.5 -1.71875q-0.5 -0.59375 -1.4375 -0.59375zm8.363281 7.125q-1.703125 0 -2.640625 -1.046875q-0.921875 -1.046875 -0.921875 -2.96875q0 -1.96875 0.9375 -3.03125q0.953125 -1.078125 2.703125 -1.078125q0.5625 0 1.1250305 0.125q0.578125 0.109375 0.890625 0.28125l-0.359375 1.015625q-0.390625 -0.171875 -0.859375 -0.265625q-0.46878052 -0.109375 -0.8281555 -0.109375q-2.390625 0 -2.390625 3.046875q0 1.453125 0.578125 2.234375q0.59375 0.765625 1.734375 0.765625q0.9844055 0 2.0156555 -0.421875l0 1.046875q-0.78125 0.40625 -1.9844055 0.40625zm10.6180725 -4.0625q0 1.90625 -0.96875 2.984375q-0.96875 1.078125 -2.671875 1.078125q-1.046875 0 -1.875 -0.484375q-0.8125 -0.5 -1.25 -1.421875q-0.4375 -0.921875 -0.4375 -2.15625q0 -1.921875 0.953125 -2.984375q0.953125 -1.078125 2.65625 -1.078125q1.65625 0 2.625 1.09375q0.96875 1.09375 0.96875 2.96875zm-5.984375 0q0 1.5 0.59375 2.28125q0.609375 0.78125 1.78125 0.78125q1.171875 0 1.765625 -0.78125q0.609375 -0.78125 0.609375 -2.28125q0 -1.5 -0.609375 -2.28125q-0.59375 -0.78125 -1.78125 -0.78125q-1.171875 0 -1.765625 0.765625q-0.59375 0.765625 -0.59375 2.296875zm18.055603 3.921875l0 -5.109375q0 -0.9375 -0.40625 -1.40625q-0.390625 -0.46875 -1.234375 -0.46875q-1.109375 0 -1.640625 0.640625q-0.53125 0.640625 -0.53125 1.96875l0 4.375l-1.1875 0l0 -5.109375q0 -0.9375 -0.40625 -1.40625q-0.390625 -0.46875 -1.25 -0.46875q-1.109375 0 -1.625 0.671875q-0.515625 0.671875 -0.515625 2.203125l0 4.109375l-1.1875 0l0 -7.84375l0.953125 0l0.203125 1.078125l0.046875 0q0.34375 -0.578125 0.953125 -0.890625q0.609375 -0.328125 1.375 -0.328125q1.84375 0 2.40625 1.328125l0.046875 0q0.359375 -0.609375 1.015625 -0.96875q0.671875 -0.359375 1.53125 -0.359375q1.328125 0 1.984375 0.6875q0.65625 0.671875 0.65625 2.1875l0 5.109375l-1.1875 0zm13.632874 0l0 -5.109375q0 -0.9375 -0.40625 -1.40625q-0.390625 -0.46875 -1.234375 -0.46875q-1.109375 0 -1.640625 0.640625q-0.53125 0.640625 -0.53125 1.96875l0 4.375l-1.1875 0l0 -5.109375q0 -0.9375 -0.40625 -1.40625q-0.390625 -0.46875 -1.25 -0.46875q-1.109375 0 -1.625 0.671875q-0.515625 0.671875 -0.515625 2.203125l0 4.109375l-1.1875 0l0 -7.84375l0.953125 0l0.203125 1.078125l0.046875 0q0.34375 -0.578125 0.953125 -0.890625q0.609375 -0.328125 1.375 -0.328125q1.84375 0 2.40625 1.328125l0.046875 0q0.359375 -0.609375 1.015625 -0.96875q0.671875 -0.359375 1.53125 -0.359375q1.328125 0 1.984375 0.6875q0.65625 0.671875 0.65625 2.1875l0 5.109375l-1.1875 0zm6.9609985 0.140625q-1.75 0 -2.75 -1.046875q-1.0 -1.0625 -1.0 -2.953125q0 -1.890625 0.921875 -3.0q0.9375 -1.125 2.515625 -1.125q1.46875 0 2.328125 0.96875q0.859375 0.96875 0.859375 2.5625l0 0.75l-5.40625 0q0.046875 1.375 0.703125 2.09375q0.65625 0.71875 1.859375 0.71875q1.265625 0 2.515625 -0.53125l0 1.0625q-0.640625 0.265625 -1.203125 0.375q-0.546875 0.125 -1.34375 0.125zm-0.328125 -7.125q-0.9375 0 -1.5 0.609375q-0.5625 0.609375 -0.671875 1.703125l4.109375 0q0 -1.125 -0.5 -1.71875q-0.5 -0.59375 -1.4375 -0.59375zm10.597656 6.984375l0 -5.078125q0 -0.953125 -0.4375 -1.421875q-0.4375 -0.484375 -1.359375 -0.484375q-1.234375 0 -1.8125 0.671875q-0.5625 0.671875 -0.5625 2.203125l0 4.109375l-1.1875 0l0 -7.84375l0.953125 0l0.203125 1.078125l0.046875 0q0.375 -0.578125 1.03125 -0.890625q0.65625 -0.328125 1.46875 -0.328125q1.421875 0 2.125 0.6875q0.71875 0.671875 0.71875 2.1875l0 5.109375l-1.1875 0zm8.964355 -1.046875l-0.0625 0q-0.828125 1.1875 -2.453125 1.1875q-1.546875 0 -2.40625 -1.046875q-0.84375 -1.046875 -0.84375 -3.0q0 -1.9375 0.859375 -3.0q0.859375 -1.078125 2.390625 -1.078125q1.59375 0 2.4375 1.15625l0.09375 0l-0.046875 -0.5625l-0.03125 -0.546875l0 -3.203125l1.1875 0l0 11.140625l-0.96875 0l-0.15625 -1.046875zm-2.375 0.1875q1.21875 0 1.765625 -0.65625q0.546875 -0.65625 0.546875 -2.140625l0 -0.25q0 -1.65625 -0.5625 -2.359375q-0.546875 -0.71875 -1.765625 -0.71875q-1.046875 0 -1.609375 0.8125q-0.546875 0.796875 -0.546875 2.28125q0 1.5 0.546875 2.265625q0.5625 0.765625 1.625 0.765625zm10.840576 0.859375l-0.234375 -1.109375l-0.046875 0q-0.59375 0.734375 -1.1875 1.0q-0.578125 0.25 -1.453125 0.25q-1.15625 0 -1.828125 -0.59375q-0.65625 -0.609375 -0.65625 -1.71875q0 -2.375 3.796875 -2.484375l1.328125 -0.046875l0 -0.484375q0 -0.921875 -0.390625 -1.359375q-0.390625 -0.4375 -1.265625 -0.4375q-0.984375 0 -2.21875 0.59375l-0.375 -0.90625q0.578125 -0.3125 1.265625 -0.484375q0.703125 -0.1875 1.390625 -0.1875q1.40625 0 2.078125 0.625q0.6875 0.609375 0.6875 1.984375l0 5.359375l-0.890625 0zm-2.671875 -0.84375q1.109375 0 1.734375 -0.59375q0.640625 -0.609375 0.640625 -1.71875l0 -0.703125l-1.1875 0.046875q-1.421875 0.0625 -2.046875 0.453125q-0.625 0.375 -0.625 1.203125q0 0.640625 0.390625 0.984375q0.390625 0.328125 1.09375 0.328125zm8.541748 0q0.3125 0 0.59375 -0.046875q0.296875 -0.046875 0.46875 -0.09375l0 0.90625q-0.1875 0.09375 -0.5625 0.15625q-0.375 0.0625 -0.671875 0.0625q-2.28125 0 -2.28125 -2.390625l0 -4.671875l-1.125 0l0 -0.578125l1.125 -0.484375l0.5 -1.671875l0.6875 0l0 1.8125l2.28125 0l0 0.921875l-2.28125 0l0 4.625q0 0.703125 0.328125 1.078125q0.34375 0.375 0.9375 0.375zm3.8303223 0.84375l-1.1875 0l0 -7.84375l1.1875 0l0 7.84375zm-1.296875 -9.96875q0 -0.40625 0.203125 -0.59375q0.203125 -0.1875 0.5 -0.1875q0.28125 0 0.484375 0.1875q0.21875 0.1875 0.21875 0.59375q0 0.40625 -0.21875 0.609375q-0.203125 0.1875 -0.484375 0.1875q-0.296875 0 -0.5 -0.1875q-0.203125 -0.203125 -0.203125 -0.609375zm10.58197 6.046875q0 1.90625 -0.96875 2.984375q-0.96875 1.078125 -2.671875 1.078125q-1.046875 0 -1.875 -0.484375q-0.8125 -0.5 -1.25 -1.421875q-0.4375 -0.921875 -0.4375 -2.15625q0 -1.921875 0.953125 -2.984375q0.953125 -1.078125 2.65625 -1.078125q1.65625 0 2.625 1.09375q0.96875 1.09375 0.96875 2.96875zm-5.984375 0q0 1.5 0.59375 2.28125q0.609375 0.78125 1.78125 0.78125q1.171875 0 1.765625 -0.78125q0.609375 -0.78125 0.609375 -2.28125q0 -1.5 -0.609375 -2.28125q-0.59375 -0.78125 -1.78125 -0.78125q-1.171875 0 -1.765625 0.765625q-0.59375 0.765625 -0.59375 2.296875zm13.430603 3.921875l0 -5.078125q0 -0.953125 -0.4375 -1.421875q-0.4375 -0.484375 -1.359375 -0.484375q-1.234375 0 -1.8125 0.671875q-0.5625 0.671875 -0.5625 2.203125l0 4.109375l-1.1875 0l0 -7.84375l0.953125 0l0.203125 1.078125l0.046875 0q0.375 -0.578125 1.03125 -0.890625q0.65625 -0.328125 1.46875 -0.328125q1.421875 0 2.125 0.6875q0.71875 0.671875 0.71875 2.1875l0 5.109375l-1.1875 0z" fill-rule="nonzero"/><path fill="#000000" d="m534.45905 386.61282l-5.828125 0l0 -10.46875l5.828125 0l0 1.09375l-4.609375 0l0 3.359375l4.328125 0l0 1.078125l-4.328125 0l0 3.84375l4.609375 0l0 1.09375zm7.510498 0l0 -5.078125q0 -0.953125 -0.4375 -1.421875q-0.4375 -0.484375 -1.359375 -0.484375q-1.234375 0 -1.8125 0.671875q-0.5625 0.671875 -0.5625 2.203125l0 4.109375l-1.1875 0l0 -7.84375l0.953125 0l0.203125 1.078125l0.046875 0q0.375 -0.578125 1.03125 -0.890625q0.65625 -0.328125 1.46875 -0.328125q1.421875 0 2.125 0.6875q0.71875 0.671875 0.71875 2.1875l0 5.109375l-1.1875 0zm10.042419 -7.84375l0 0.75l-1.453125 0.171875q0.203125 0.25 0.359375 0.65625q0.15625 0.40625 0.15625 0.90625q0 1.15625 -0.78125 1.84375q-0.78125 0.6875 -2.15625 0.6875q-0.359375 0 -0.65625 -0.0625q-0.765625 0.40625 -0.765625 1.015625q0 0.328125 0.265625 0.484375q0.265625 0.140625 0.90625 0.140625l1.390625 0q1.28125 0 1.953125 0.546875q0.6875 0.53125 0.6875 1.5625q0 1.296875 -1.046875 1.96875q-1.046875 0.6875 -3.046875 0.6875q-1.53125 0 -2.375 -0.578125q-0.828125 -0.5625 -0.828125 -1.609375q0 -0.71875 0.453125 -1.234375q0.453125 -0.515625 1.296875 -0.703125q-0.3125 -0.140625 -0.515625 -0.421875q-0.203125 -0.296875 -0.203125 -0.671875q0 -0.421875 0.234375 -0.75q0.234375 -0.328125 0.71875 -0.625q-0.609375 -0.25 -1.0 -0.84375q-0.375 -0.609375 -0.375 -1.375q0 -1.296875 0.765625 -1.984375q0.78125 -0.703125 2.203125 -0.703125q0.609375 0 1.109375 0.140625l2.703125 0zm-6.25 9.15625q0 0.640625 0.53125 0.96875q0.546875 0.328125 1.546875 0.328125q1.5 0 2.21875 -0.453125q0.71875 -0.4375 0.71875 -1.203125q0 -0.640625 -0.40625 -0.890625q-0.390625 -0.234375 -1.46875 -0.234375l-1.421875 0q-0.8125 0 -1.265625 0.375q-0.453125 0.390625 -0.453125 1.109375zm0.640625 -6.640625q0 0.8125 0.46875 1.234375q0.46875 0.421875 1.296875 0.421875q1.734375 0 1.734375 -1.6875q0 -1.765625 -1.75 -1.765625q-0.84375 0 -1.296875 0.453125q-0.453125 0.453125 -0.453125 1.34375zm8.420105 5.328125l-1.1875 0l0 -7.84375l1.1875 0l0 7.84375zm-1.296875 -9.96875q0 -0.40625 0.203125 -0.59375q0.203125 -0.1875 0.5 -0.1875q0.28125 0 0.484375 0.1875q0.21875 0.1875 0.21875 0.59375q0 0.40625 -0.21875 0.609375q-0.203125 0.1875 -0.484375 0.1875q-0.296875 0 -0.5 -0.1875q-0.203125 -0.203125 -0.203125 -0.609375zm9.17572 9.96875l0 -5.078125q0 -0.953125 -0.4375 -1.421875q-0.4375 -0.484375 -1.359375 -0.484375q-1.234375 0 -1.8125 0.671875q-0.5625 0.671875 -0.5625 2.203125l0 4.109375l-1.1875 0l0 -7.84375l0.953125 0l0.203125 1.078125l0.046875 0q0.375 -0.578125 1.03125 -0.890625q0.65625 -0.328125 1.46875 -0.328125q1.421875 0 2.125 0.6875q0.71875 0.671875 0.71875 2.1875l0 5.109375l-1.1875 0zm6.9486694 0.140625q-1.75 0 -2.75 -1.046875q-1.0 -1.0625 -1.0 -2.953125q0 -1.890625 0.921875 -3.0q0.9375 -1.125 2.515625 -1.125q1.46875 0 2.328125 0.96875q0.859375 0.96875 0.859375 2.5625l0 0.75l-5.40625 0q0.046875 1.375 0.703125 2.09375q0.65625 0.71875 1.859375 0.71875q1.265625 0 2.515625 -0.53125l0 1.0625q-0.640625 0.265625 -1.203125 0.375q-0.546875 0.125 -1.34375 0.125zm-0.328125 -7.125q-0.9375 0 -1.5 0.609375q-0.5625 0.609375 -0.671875 1.703125l4.109375 0q0 -1.125 -0.5 -1.71875q-0.5 -0.59375 -1.4375 -0.59375z" fill-rule="nonzero"/><path fill="#000000" fill-opacity="0.0" d="m242.97427 237.48819l131.49606 0l0 54.992126l-131.49606 0z" fill-rule="evenodd"/><path stroke="#000000" stroke-width="2.0" stroke-linejoin="round" stroke-linecap="butt" d="m242.97427 237.48819l131.49606 0l0 54.992126l-131.49606 0z" fill-rule="evenodd"/><path fill="#000000" d="m302.4388 255.73613q0 2.5937347 -1.40625 3.9687347q-1.40625 1.359375 -4.046875 1.359375l-2.90625 0l0 -10.468735l3.203125 0q2.4375 0 3.796875 1.359375q1.359375 1.359375 1.359375 3.78125zm-1.296875 0.046875q0 -2.046875 -1.03125 -3.078125q-1.015625 -1.046875 -3.046875 -1.046875l-1.765625 0l0 8.35936l1.484375 0q2.171875 0 3.265625 -1.0625q1.09375 -1.078125 1.09375 -3.1718597zm8.262604 5.2812347l-0.234375 -1.109375l-0.046875 0q-0.59375 0.734375 -1.1875 1.0q-0.578125 0.25 -1.453125 0.25q-1.15625 0 -1.828125 -0.59375q-0.65625 -0.609375 -0.65625 -1.71875q0 -2.375 3.796875 -2.484375l1.328125 -0.046875l0 -0.48435974q0 -0.921875 -0.390625 -1.359375q-0.390625 -0.4375 -1.265625 -0.4375q-0.984375 0 -2.21875 0.59375l-0.375 -0.90625q0.578125 -0.3125 1.265625 -0.484375q0.703125 -0.1875 1.390625 -0.1875q1.40625 0 2.078125 0.625q0.6875 0.609375 0.6875 1.984375l0 5.3593597l-0.890625 0zm-2.671875 -0.84375q1.109375 0 1.734375 -0.59375q0.640625 -0.609375 0.640625 -1.71875l0 -0.703125l-1.1875 0.046875q-1.421875 0.0625 -2.046875 0.453125q-0.625 0.375 -0.625 1.203125q0 0.640625 0.390625 0.984375q0.390625 0.328125 1.09375 0.328125zm8.541718 0q0.3125 0 0.59375 -0.046875q0.296875 -0.046875 0.46875 -0.09375l0 0.90625q-0.1875 0.09375 -0.5625 0.15625q-0.375 0.0625 -0.671875 0.0625q-2.28125 0 -2.28125 -2.390625l0 -4.6718597l-1.125 0l0 -0.578125l1.125 -0.484375l0.5 -1.671875l0.6875 0l0 1.8125l2.28125 0l0 0.921875l-2.28125 0l0 4.6249847q0 0.703125 0.328125 1.078125q0.34375 0.375 0.9375 0.375zm7.4553223 0.84375l-0.234375 -1.109375l-0.046875 0q-0.59375 0.734375 -1.1875 1.0q-0.578125 0.25 -1.453125 0.25q-1.15625 0 -1.828125 -0.59375q-0.65625 -0.609375 -0.65625 -1.71875q0 -2.375 3.796875 -2.484375l1.328125 -0.046875l0 -0.48435974q0 -0.921875 -0.390625 -1.359375q-0.390625 -0.4375 -1.265625 -0.4375q-0.984375 0 -2.21875 0.59375l-0.375 -0.90625q0.578125 -0.3125 1.265625 -0.484375q0.703125 -0.1875 1.390625 -0.1875q1.40625 0 2.078125 0.625q0.6875 0.609375 0.6875 1.984375l0 5.3593597l-0.890625 0zm-2.671875 -0.84375q1.109375 0 1.734375 -0.59375q0.640625 -0.609375 0.640625 -1.71875l0 -0.703125l-1.1875 0.046875q-1.421875 0.0625 -2.046875 0.453125q-0.625 0.375 -0.625 1.203125q0 0.640625 0.390625 0.984375q0.390625 0.328125 1.09375 0.328125z" fill-rule="nonzero"/><path fill="#000000" d="m280.0131 271.658q0 1.578125 -1.09375 2.4375q-1.078125 0.859375 -3.09375 0.859375l-1.234375 0l0 4.109375l-1.21875 0l0 -10.46875l2.71875 0q3.921875 0 3.921875 3.0625zm-5.421875 2.25l1.09375 0q1.625 0 2.34375 -0.515625q0.71875 -0.53125 0.71875 -1.6875q0 -1.03125 -0.6875 -1.53125q-0.671875 -0.515625 -2.109375 -0.515625l-1.359375 0l0 4.25zm11.011322 -2.828125q0.515625 0 0.9375 0.078125l-0.171875 1.109375q-0.484375 -0.109375 -0.859375 -0.109375q-0.953125 0 -1.625 0.78125q-0.671875 0.765625 -0.671875 1.921875l0 4.203125l-1.1875 0l0 -7.84375l0.96875 0l0.140625 1.453125l0.0625 0q0.4375 -0.765625 1.046875 -1.171875q0.609375 -0.421875 1.359375 -0.421875zm9.170227 4.0625q0 1.90625 -0.96875 2.984375q-0.96875 1.078125 -2.671875 1.078125q-1.046875 0 -1.875 -0.484375q-0.8125 -0.5 -1.25 -1.421875q-0.4375 -0.921875 -0.4375 -2.15625q0 -1.921875 0.953125 -2.984375q0.953125 -1.078125 2.65625 -1.078125q1.65625 0 2.625 1.09375q0.96875 1.09375 0.96875 2.96875zm-5.984375 0q0 1.5 0.59375 2.28125q0.609375 0.78125 1.78125 0.78125q1.171875 0 1.765625 -0.78125q0.609375 -0.78125 0.609375 -2.28125q0 -1.5 -0.609375 -2.28125q-0.59375 -0.78125 -1.78125 -0.78125q-1.171875 0 -1.765625 0.765625q-0.59375 0.765625 -0.59375 2.296875zm11.196167 4.0625q-1.703125 0 -2.640625 -1.046875q-0.921875 -1.046875 -0.921875 -2.96875q0 -1.96875 0.9375 -3.03125q0.953125 -1.078125 2.703125 -1.078125q0.5625 0 1.125 0.125q0.578125 0.109375 0.890625 0.28125l-0.359375 1.015625q-0.390625 -0.171875 -0.859375 -0.265625q-0.46875 -0.109375 -0.828125 -0.109375q-2.390625 0 -2.390625 3.046875q0 1.453125 0.578125 2.234375q0.59375 0.765625 1.734375 0.765625q0.984375 0 2.015625 -0.421875l0 1.046875q-0.78125 0.40625 -1.984375 0.40625zm7.164978 0q-1.75 0 -2.75 -1.046875q-1.0 -1.0625 -1.0 -2.953125q0 -1.890625 0.921875 -3.0q0.9375 -1.125 2.515625 -1.125q1.46875 0 2.328125 0.96875q0.859375 0.96875 0.859375 2.5625l0 0.75l-5.40625 0q0.046875 1.375 0.703125 2.09375q0.65625 0.71875 1.859375 0.71875q1.265625 0 2.515625 -0.53125l0 1.0625q-0.640625 0.265625 -1.203125 0.375q-0.546875 0.125 -1.34375 0.125zm-0.328125 -7.125q-0.9375 0 -1.5 0.609375q-0.5625 0.609375 -0.671875 1.703125l4.109375 0q0 -1.125 -0.5 -1.71875q-0.5 -0.59375 -1.4375 -0.59375zm10.285156 4.84375q0 1.09375 -0.8125 1.6875q-0.8125 0.59375 -2.28125 0.59375q-1.5625 0 -2.4375 -0.484375l0 -1.109375q0.5625 0.28125 1.203125 0.453125q0.65625 0.15625 1.25 0.15625q0.9375 0 1.4375 -0.296875q0.5 -0.296875 0.5 -0.90625q0 -0.453125 -0.40625 -0.78125q-0.390625 -0.328125 -1.53125 -0.765625q-1.109375 -0.40625 -1.578125 -0.703125q-0.453125 -0.3125 -0.671875 -0.6875q-0.21875 -0.390625 -0.21875 -0.9375q0 -0.953125 0.765625 -1.5q0.78125 -0.5625 2.140625 -0.5625q1.265625 0 2.484375 0.515625l-0.421875 0.96875q-1.1875 -0.484375 -2.140625 -0.484375q-0.84375 0 -1.28125 0.265625q-0.421875 0.25 -0.421875 0.71875q0 0.3125 0.15625 0.546875q0.171875 0.21875 0.515625 0.421875q0.359375 0.1875 1.375 0.578125q1.40625 0.5 1.890625 1.015625q0.484375 0.515625 0.484375 1.296875zm6.991791 0q0 1.09375 -0.8125 1.6875q-0.8125 0.59375 -2.28125 0.59375q-1.5625 0 -2.4375 -0.484375l0 -1.109375q0.5625 0.28125 1.203125 0.453125q0.65625 0.15625 1.25 0.15625q0.9375 0 1.4375 -0.296875q0.5 -0.296875 0.5 -0.90625q0 -0.453125 -0.40625 -0.78125q-0.390625 -0.328125 -1.53125 -0.765625q-1.109375 -0.40625 -1.578125 -0.703125q-0.453125 -0.3125 -0.671875 -0.6875q-0.21875 -0.390625 -0.21875 -0.9375q0 -0.953125 0.765625 -1.5q0.78125 -0.5625 2.140625 -0.5625q1.265625 0 2.484375 0.515625l-0.421875 0.96875q-1.1875 -0.484375 -2.140625 -0.484375q-0.84375 0 -1.28125 0.265625q-0.421875 0.25 -0.421875 0.71875q0 0.3125 0.15625 0.546875q0.171875 0.21875 0.515625 0.421875q0.359375 0.1875 1.375 0.578125q1.40625 0.5 1.890625 1.015625q0.484375 0.515625 0.484375 1.296875zm3.1323853 2.140625l-1.1875 0l0 -7.84375l1.1875 0l0 7.84375zm-1.296875 -9.96875q0 -0.40625 0.203125 -0.59375q0.203125 -0.1875 0.5 -0.1875q0.28125 0 0.484375 0.1875q0.21875 0.1875 0.21875 0.59375q0 0.40625 -0.21875 0.609375q-0.203125 0.1875 -0.484375 0.1875q-0.296875 0 -0.5 -0.1875q-0.203125 -0.203125 -0.203125 -0.609375zm9.175751 9.96875l0 -5.078125q0 -0.953125 -0.4375 -1.421875q-0.4375 -0.484375 -1.359375 -0.484375q-1.234375 0 -1.8125 0.671875q-0.5625 0.671875 -0.5625 2.203125l0 4.109375l-1.1875 0l0 -7.84375l0.953125 0l0.203125 1.078125l0.046875 0q0.375 -0.578125 1.03125 -0.890625q0.65625 -0.328125 1.46875 -0.328125q1.421875 0 2.125 0.6875q0.71875 0.671875 0.71875 2.1875l0 5.109375l-1.1875 0zm10.04245 -7.84375l0 0.75l-1.453125 0.171875q0.203125 0.25 0.359375 0.65625q0.15625 0.40625 0.15625 0.90625q0 1.15625 -0.78125 1.84375q-0.78125 0.6875 -2.15625 0.6875q-0.359375 0 -0.65625 -0.0625q-0.765625 0.40625 -0.765625 1.015625q0 0.328125 0.265625 0.484375q0.265625 0.140625 0.90625 0.140625l1.390625 0q1.28125 0 1.953125 0.546875q0.6875 0.53125 0.6875 1.5625q0 1.296875 -1.046875 1.96875q-1.046875 0.6875 -3.046875 0.6875q-1.53125 0 -2.375 -0.578125q-0.828125 -0.5625 -0.828125 -1.609375q0 -0.71875 0.453125 -1.234375q0.453125 -0.515625 1.296875 -0.703125q-0.3125 -0.140625 -0.515625 -0.421875q-0.203125 -0.296875 -0.203125 -0.671875q0 -0.421875 0.234375 -0.75q0.234375 -0.328125 0.71875 -0.625q-0.609375 -0.25 -1.0 -0.84375q-0.375 -0.609375 -0.375 -1.375q0 -1.296875 0.765625 -1.984375q0.78125 -0.703125 2.203125 -0.703125q0.609375 0 1.109375 0.140625l2.703125 0zm-6.25 9.15625q0 0.640625 0.53125 0.96875q0.546875 0.328125 1.546875 0.328125q1.5 0 2.21875 -0.453125q0.71875 -0.4375 0.71875 -1.203125q0 -0.640625 -0.40625 -0.890625q-0.390625 -0.234375 -1.46875 -0.234375l-1.421875 0q-0.8125 0 -1.265625 0.375q-0.453125 0.390625 -0.453125 1.109375zm0.640625 -6.640625q0 0.8125 0.46875 1.234375q0.46875 0.421875 1.296875 0.421875q1.734375 0 1.734375 -1.6875q0 -1.765625 -1.75 -1.765625q-0.84375 0 -1.296875 0.453125q-0.453125 0.453125 -0.453125 1.34375z" fill-rule="nonzero"/><path fill="#000000" fill-opacity="0.0" d="m308.72177 345.03702l0 -52.566925" fill-rule="evenodd"/><path stroke="#000000" stroke-width="2.0" stroke-linejoin="round" stroke-linecap="butt" d="m308.72177 345.03702l0 -52.566925" fill-rule="evenodd"/><path fill="#000000" fill-opacity="0.0" d="m374.47034 264.98425l49.036438 0l0 107.55905l49.042297 0" fill-rule="evenodd"/><path stroke="#000000" stroke-width="2.0" stroke-linejoin="round" stroke-linecap="butt" d="m374.47034 264.98425l49.036438 0l0 107.55905l49.042297 0" fill-rule="evenodd"/><path fill="#000000" fill-opacity="0.0" d="m304.40683 123.85302l0 69.88976l71.37009 0" fill-rule="evenodd"/><path stroke="#000000" stroke-width="2.0" stroke-linejoin="round" stroke-linecap="butt" d="m304.40683 123.85302l0 69.88976l71.37009 0" fill-rule="evenodd"/><path fill="#000000" fill-opacity="0.0" d="m507.26117 193.74803l70.77167 0l0 -69.88976" fill-rule="evenodd"/><path stroke="#000000" stroke-width="2.0" stroke-linejoin="round" stroke-linecap="butt" d="m507.26117 193.74803l70.77167 0l0 -69.88976" fill-rule="evenodd"/><path fill="#000000" fill-opacity="0.0" d="m366.61154 96.35696l34.86615 0.28346252" fill-rule="evenodd"/><path stroke="#000000" stroke-width="2.0" stroke-linejoin="round" stroke-linecap="butt" d="m366.61154 96.35696l34.86615 0.28346252" fill-rule="evenodd"/><path fill="#000000" fill-opacity="0.0" d="m481.5748 96.63911l25.700806 -0.28346252" fill-rule="evenodd"/><path stroke="#000000" stroke-width="2.0" stroke-linejoin="round" stroke-linecap="butt" d="m481.5748 96.63911l25.700806 -0.28346252" fill-rule="evenodd"/><path fill="#000000" fill-opacity="0.0" d="m279.8819 237.48819l-0.9133911 -113.480316" fill-rule="evenodd"/><path stroke="#000000" stroke-width="2.0" stroke-linejoin="round" stroke-linecap="butt" d="m279.8819 237.48819l-0.9133911 -113.480316" fill-rule="evenodd"/><path fill="#000000" fill-opacity="0.0" d="m603.14435 345.4672l0 -221.48032" fill-rule="evenodd"/><path stroke="#000000" stroke-width="2.0" stroke-linejoin="round" stroke-linecap="butt" d="m603.14435 345.4672l0 -221.48032" fill-rule="evenodd"/><path fill="#000000" fill-opacity="0.0" d="m24.952755 79.116974l0 0c0 -4.8387527 3.9225826 -8.76133 8.76133 -8.76133l130.44585 0c2.3236542 0 4.552124 0.9230652 6.1952057 2.5661316c1.6430664 1.6430664 2.5661316 3.8715515 2.5661316 6.195198l0 35.044266c0 4.8387527 -3.9225922 8.76133 -8.761337 8.76133l-130.44585 0c-4.838747 0 -8.76133 -3.922577 -8.76133 -8.76133z" fill-rule="evenodd"/><path stroke="#000000" stroke-width="1.0" stroke-linejoin="round" stroke-linecap="butt" d="m24.952755 79.116974l0 0c0 -4.8387527 3.9225826 -8.76133 8.76133 -8.76133l130.44585 0c2.3236542 0 4.552124 0.9230652 6.1952057 2.5661316c1.6430664 1.6430664 2.5661316 3.8715515 2.5661316 6.195198l0 35.044266c0 4.8387527 -3.9225922 8.76133 -8.761337 8.76133l-130.44585 0c-4.838747 0 -8.76133 -3.922577 -8.76133 -8.76133z" fill-rule="evenodd"/><path fill="#000000" d="m57.554707 82.90786q0 1.25 -0.90625 1.953125q-0.90625 0.703125 -2.46875 0.703125q-1.703125 0 -2.609375 -0.4375l0 -1.0625q0.59375 0.25 1.28125 0.390625q0.6875 0.140625 1.359375 0.140625q1.109375 0 1.671875 -0.40625q0.5625 -0.421875 0.5625 -1.171875q0 -0.5 -0.203125 -0.8125q-0.203125 -0.3125 -0.671875 -0.578125q-0.453125 -0.28125 -1.40625 -0.609375q-1.328125 -0.484375 -1.90625 -1.125q-0.5625 -0.65625 -0.5625 -1.703125q0 -1.09375 0.828125 -1.75q0.828125 -0.65625 2.1875 -0.65625q1.421875 0 2.609375 0.53125l-0.34375 0.953125q-1.1875 -0.484375 -2.296875 -0.484375q-0.875 0 -1.375 0.375q-0.484375 0.375 -0.484375 1.046875q0 0.5 0.171875 0.8125q0.1875 0.3125 0.609375 0.578125q0.4375 0.265625 1.328125 0.578125q1.5 0.53125 2.0625 1.15625q0.5625 0.609375 0.5625 1.578125zm4.799225 2.65625q-1.578125 0 -2.5 -0.953125q-0.90625 -0.96875 -0.90625 -2.671875q0 -1.734375 0.84375 -2.75q0.859375 -1.015625 2.28125 -1.015625q1.34375 0 2.1249962 0.890625q0.78125 0.875 0.78125 2.328125l0 0.671875l-4.906246 0q0.03125 1.265625 0.625 1.921875q0.609375 0.640625 1.703125 0.640625q1.140625 0 2.2656212 -0.484375l0 0.96875q-0.5625 0.25 -1.0781212 0.34375q-0.515625 0.109375 -1.234375 0.109375zm-0.296875 -6.484375q-0.859375 0 -1.375 0.5625q-0.5 0.5625 -0.59375 1.546875l3.734375 0q0 -1.015625 -0.453125 -1.5625q-0.453125 -0.546875 -1.3125 -0.546875zm9.1494255 6.359375l-0.21875 -1.015625l-0.046875 0q-0.53125 0.671875 -1.0625 0.90625q-0.53125 0.234375 -1.328125 0.234375q-1.0625 0 -1.671875 -0.546875q-0.59375 -0.546875 -0.59375 -1.546875q0 -2.15625 3.453125 -2.265625l1.21875 -0.046875l0 -0.4375q0 -0.84375 -0.359375 -1.234375q-0.359375 -0.40625 -1.15625 -0.40625q-0.890625 0 -2.015625 0.546875l-0.34375 -0.828125q0.53125 -0.28125 1.15625 -0.4375q0.640625 -0.171875 1.265625 -0.171875q1.28125 0 1.890625 0.5625q0.609375 0.5625 0.609375 1.8125l0 4.875l-0.796875 0zm-2.4375 -0.765625q1.0 0 1.578125 -0.546875q0.578125 -0.5625 0.578125 -1.546875l0 -0.640625l-1.078125 0.03125q-1.28125 0.046875 -1.859375 0.40625q-0.5625 0.359375 -0.5625 1.109375q0 0.578125 0.34375 0.890625q0.359375 0.296875 1.0 0.296875zm8.724976 -6.5q0.46875 0 0.84375 0.078125l-0.140625 1.0q-0.453125 -0.09375 -0.78125 -0.09375q-0.875 0 -1.5 0.703125q-0.609375 0.703125 -0.609375 1.75l0 3.828125l-1.078125 0l0 -7.125l0.890625 0l0.125 1.3125l0.0625 0q0.390625 -0.703125 0.953125 -1.078125q0.5625 -0.375 1.234375 -0.375zm5.0343323 7.390625q-1.546875 0 -2.40625 -0.953125q-0.84375 -0.953125 -0.84375 -2.6875q0 -1.796875 0.859375 -2.765625q0.859375 -0.984375 2.453125 -0.984375q0.515625 0 1.03125 0.109375q0.515625 0.109375 0.8125 0.265625l-0.328125 0.921875q-0.359375 -0.15625 -0.796875 -0.25q-0.421875 -0.09375 -0.734375 -0.09375q-2.171875 0 -2.171875 2.78125q0 1.3125 0.515625 2.015625q0.53125 0.703125 1.578125 0.703125q0.890625 0 1.828125 -0.390625l0 0.96875q-0.71875 0.359375 -1.796875 0.359375zm8.376434 -0.125l0 -4.609375q0 -0.875 -0.40625 -1.296875q-0.390625 -0.4375 -1.234375 -0.4375q-1.125 0 -1.65625 0.609375q-0.515625 0.609375 -0.515625 2.0l0 3.734375l-1.078125 0l0 -10.125l1.078125 0l0 3.0625q0 0.546875 -0.046875 0.921875l0.0625 0q0.328125 -0.515625 0.90625 -0.8125q0.59375 -0.296875 1.34375 -0.296875q1.3125 0 1.96875 0.625q0.65625 0.625 0.65625 1.96875l0 4.65625l-1.078125 0zm6.6179047 0.125q-0.703125 0 -1.28125 -0.25q-0.578125 -0.265625 -0.96875 -0.796875l-0.078125 0q0.078125 0.625 0.078125 1.1875l0 2.9375l-1.078125 0l0 -10.328125l0.890625 0l0.140625 0.96875l0.046875 0q0.421875 -0.578125 0.96875 -0.84375q0.5625 -0.265625 1.28125 -0.265625q1.421875 0 2.1875 0.96875q0.765625 0.96875 0.765625 2.71875q0 1.765625 -0.78125 2.734375q-0.78125 0.96875 -2.171875 0.96875zm-0.15625 -6.46875q-1.09375 0 -1.59375 0.609375q-0.484375 0.59375 -0.5 1.921875l0 0.234375q0 1.515625 0.5 2.15625q0.515625 0.640625 1.609375 0.640625q0.9375 0 1.453125 -0.734375q0.53125 -0.75 0.53125 -2.0625q0 -1.34375 -0.53125 -2.046875q-0.515625 -0.71875 -1.46875 -0.71875zm8.011139 6.46875q-1.578125 0 -2.5 -0.953125q-0.90625 -0.96875 -0.90625 -2.671875q0 -1.734375 0.84375 -2.75q0.859375 -1.015625 2.28125 -1.015625q1.34375 0 2.125 0.890625q0.78125 0.875 0.78125 2.328125l0 0.671875l-4.90625 0q0.03125 1.265625 0.625 1.921875q0.609375 0.640625 1.703125 0.640625q1.140625 0 2.265625 -0.484375l0 0.96875q-0.5625 0.25 -1.078125 0.34375q-0.515625 0.109375 -1.234375 0.109375zm-0.296875 -6.484375q-0.859375 0 -1.375 0.5625q-0.5 0.5625 -0.59375 1.546875l3.734375 0q0 -1.015625 -0.453125 -1.5625q-0.453125 -0.546875 -1.3125 -0.546875zm8.024429 -0.90625q0.46875 0 0.84375 0.078125l-0.140625 1.0q-0.453125 -0.09375 -0.78125 -0.09375q-0.875 0 -1.5 0.703125q-0.609375 0.703125 -0.609375 1.75l0 3.828125l-1.078125 0l0 -7.125l0.890625 0l0.125 1.3125l0.0625 0q0.390625 -0.703125 0.953125 -1.078125q0.5625 -0.375 1.234375 -0.375zm3.2530823 7.265625l-1.078125 0l0 -7.125l1.078125 0l0 7.125zm-1.171875 -9.0625q0 -0.375 0.1875 -0.546875q0.1875 -0.171875 0.453125 -0.171875q0.265625 0 0.453125 0.171875q0.1875 0.171875 0.1875 0.546875q0 0.359375 -0.1875 0.546875q-0.1875 0.171875 -0.453125 0.171875q-0.265625 0 -0.453125 -0.171875q-0.1875 -0.1875 -0.1875 -0.546875zm6.4804535 9.1875q-1.578125 0 -2.5 -0.953125q-0.90625 -0.96875 -0.90625 -2.671875q0 -1.734375 0.84375 -2.75q0.859375 -1.015625 2.28125 -1.015625q1.34375 0 2.125 0.890625q0.78125 0.875 0.78125 2.328125l0 0.671875l-4.90625 0q0.03125 1.265625 0.625 1.921875q0.609375 0.640625 1.703125 0.640625q1.140625 0 2.265625 -0.484375l0 0.96875q-0.5625 0.25 -1.078125 0.34375q-0.515625 0.109375 -1.234375 0.109375zm-0.296875 -6.484375q-0.859375 0 -1.375 0.5625q-0.5 0.5625 -0.59375 1.546875l3.734375 0q0 -1.015625 -0.453125 -1.5625q-0.453125 -0.546875 -1.3125 -0.546875zm9.649429 6.359375l0 -4.609375q0 -0.875 -0.40625 -1.296875q-0.390625 -0.4375 -1.234375 -0.4375q-1.125 0 -1.65625 0.609375q-0.515625 0.59375 -0.515625 2.0l0 3.734375l-1.078125 0l0 -7.125l0.890625 0l0.171875 0.96875l0.046875 0q0.328125 -0.53125 0.921875 -0.8125q0.609375 -0.296875 1.34375 -0.296875q1.296875 0 1.9375 0.625q0.65625 0.625 0.65625 1.984375l0 4.65625l-1.078125 0zm6.1491547 0.125q-1.546875 0 -2.40625 -0.953125q-0.84375 -0.953125 -0.84375 -2.6875q0 -1.796875 0.859375 -2.765625q0.859375 -0.984375 2.453125 -0.984375q0.515625 0 1.03125 0.109375q0.515625 0.109375 0.8125 0.265625l-0.328125 0.921875q-0.359375 -0.15625 -0.796875 -0.25q-0.421875 -0.09375 -0.734375 -0.09375q-2.171875 0 -2.171875 2.78125q0 1.3125 0.515625 2.015625q0.53125 0.703125 1.578125 0.703125q0.890625 0 1.828125 -0.390625l0 0.96875q-0.71875 0.359375 -1.796875 0.359375zm6.5014343 0q-1.578125 0 -2.5 -0.953125q-0.90625 -0.96875 -0.90625 -2.671875q0 -1.734375 0.84375 -2.75q0.859375 -1.015625 2.28125 -1.015625q1.34375 0 2.125 0.890625q0.78125 0.875 0.78125 2.328125l0 0.671875l-4.90625 0q0.03125 1.265625 0.625 1.921875q0.609375 0.640625 1.703125 0.640625q1.140625 0 2.265625 -0.484375l0 0.96875q-0.5625 0.25 -1.078125 0.34375q-0.515625 0.109375 -1.234375 0.109375zm-0.296875 -6.484375q-0.859375 0 -1.375 0.5625q-0.5 0.5625 -0.59375 1.546875l3.734375 0q0 -1.015625 -0.453125 -1.5625q-0.453125 -0.546875 -1.3125 -0.546875z" fill-rule="nonzero"/><path fill="#000000" d="m53.576702 94.70473q0 1.4375 -0.984375 2.21875q-0.984375 0.78125 -2.828125 0.78125l-1.109375 0l0 3.734375l-1.109375 0l0 -9.515625l2.46875 0q3.5625 0 3.5625 2.78125zm-4.921875 2.046875l0.984375 0q1.46875 0 2.125 -0.46875q0.671875 -0.484375 0.671875 -1.53125q0 -0.953125 -0.625 -1.40625q-0.625 -0.46875 -1.921875 -0.46875l-1.234375 0l0 3.875zm10.008591 -2.578125q0.46875 0 0.84375 0.078125l-0.140625 1.0q-0.453125 -0.09375 -0.78125 -0.09375q-0.875 0 -1.5 0.703125q-0.609375 0.703125 -0.609375 1.75l0 3.828125l-1.078125 0l0 -7.125l0.890625 0l0.125 1.3125l0.0625 0q0.390625 -0.703125 0.953125 -1.078125q0.5625 -0.375 1.234375 -0.375zm8.331203 3.6875q0 1.75 -0.875 2.734375q-0.875 0.96875 -2.4218712 0.96875q-0.953125 0 -1.703125 -0.4375q-0.734375 -0.453125 -1.140625 -1.296875q-0.40625 -0.84375 -0.40625 -1.96875q0 -1.734375 0.875 -2.703125q0.875 -0.984375 2.421875 -0.984375q1.4843712 0 2.3593712 1.0q0.890625 1.0 0.890625 2.6875zm-5.421871 0q0 1.375 0.546875 2.09375q0.546875 0.703125 1.59375 0.703125q1.0624962 0 1.6093712 -0.703125q0.5625 -0.71875 0.5625 -2.09375q0 -1.359375 -0.5625 -2.0625q-0.546875 -0.703125 -1.6093712 -0.703125q-1.0625 0 -1.609375 0.703125q-0.53125 0.6875 -0.53125 2.0625zm12.175243 2.625l-0.0625 0q-0.75 1.078125 -2.234375 1.078125q-1.40625 0 -2.1875 -0.953125q-0.765625 -0.953125 -0.765625 -2.71875q0 -1.765625 0.78125 -2.734375q0.78125 -0.984375 2.171875 -0.984375q1.453125 0 2.21875 1.0625l0.09375 0l-0.046875 -0.515625l-0.03125 -0.5l0 -2.90625l1.078125 0l0 10.125l-0.875 0l-0.140625 -0.953125zm-2.15625 0.171875q1.109375 0 1.59375 -0.59375q0.5 -0.609375 0.5 -1.9375l0 -0.234375q0 -1.515625 -0.5 -2.15625q-0.5 -0.65625 -1.609375 -0.65625q-0.953125 0 -1.453125 0.75q-0.5 0.734375 -0.5 2.078125q0 1.359375 0.5 2.0625q0.5 0.6875 1.46875 0.6875zm6.479889 -6.34375l0 4.625q0 0.859375 0.390625 1.296875q0.40625 0.421875 1.25 0.421875q1.125 0 1.640625 -0.609375q0.515625 -0.609375 0.515625 -2.0l0 -3.734375l1.078125 0l0 7.125l-0.890625 0l-0.15625 -0.953125l-0.0625 0q-0.328125 0.53125 -0.921875 0.8125q-0.578125 0.265625 -1.34375 0.265625q-1.296875 0 -1.953125 -0.609375q-0.640625 -0.625 -0.640625 -1.984375l0 -4.65625l1.09375 0zm10.024155 7.25q-1.546875 0 -2.40625 -0.953125q-0.84375 -0.953125 -0.84375 -2.6875q0 -1.796875 0.859375 -2.765625q0.859375 -0.984375 2.453125 -0.984375q0.515625 0 1.03125 0.109375q0.515625 0.109375 0.8125 0.265625l-0.328125 0.921875q-0.359375 -0.15625 -0.796875 -0.25q-0.421875 -0.09375 -0.734375 -0.09375q-2.171875 0 -2.171875 2.78125q0 1.3125 0.515625 2.015625q0.53125 0.703125 1.578125 0.703125q0.890625 0 1.828125 -0.390625l0 0.96875q-0.71875 0.359375 -1.796875 0.359375zm5.7983093 -0.890625q0.28125 0 0.546875 -0.03125q0.265625 -0.046875 0.421875 -0.09375l0 0.828125q-0.171875 0.078125 -0.515625 0.125q-0.34375 0.0625 -0.609375 0.0625q-2.078125 0 -2.078125 -2.171875l0 -4.25l-1.015625 0l0 -0.515625l1.015625 -0.453125l0.453125 -1.515625l0.625 0l0 1.65625l2.078125 0l0 0.828125l-2.078125 0l0 4.203125q0 0.640625 0.3125 0.984375q0.3125 0.34375 0.84375 0.34375zm6.933014 0.765625l-1.078125 0l0 -7.125l1.078125 0l0 7.125zm-1.171875 -9.0625q0 -0.375 0.1875 -0.546875q0.1875 -0.171875 0.453125 -0.171875q0.265625 0 0.453125 0.171875q0.1875 0.171875 0.1875 0.546875q0 0.359375 -0.1875 0.546875q-0.1875 0.171875 -0.453125 0.171875q-0.265625 0 -0.453125 -0.171875q-0.1875 -0.1875 -0.1875 -0.546875zm8.3554535 9.0625l0 -4.609375q0 -0.875 -0.40625 -1.296875q-0.390625 -0.4375 -1.234375 -0.4375q-1.125 0 -1.65625 0.609375q-0.515625 0.59375 -0.515625 2.0l0 3.734375l-1.078125 0l0 -7.125l0.890625 0l0.171875 0.96875l0.046875 0q0.328125 -0.53125 0.921875 -0.8125q0.609375 -0.296875 1.34375 -0.296875q1.296875 0 1.9375 0.625q0.65625 0.625 0.65625 1.984375l0 4.65625l-1.078125 0zm8.149155 -0.953125l-0.0625 0q-0.75 1.078125 -2.234375 1.078125q-1.40625 0 -2.1875 -0.953125q-0.765625 -0.953125 -0.765625 -2.71875q0 -1.765625 0.78125 -2.734375q0.78125 -0.984375 2.171875 -0.984375q1.453125 0 2.21875 1.0625l0.09375 0l-0.046875 -0.515625l-0.03125 -0.5l0 -2.90625l1.078125 0l0 10.125l-0.875 0l-0.140625 -0.953125zm-2.15625 0.171875q1.109375 0 1.59375 -0.59375q0.5 -0.609375 0.5 -1.9375l0 -0.234375q0 -1.515625 -0.5 -2.15625q-0.5 -0.65625 -1.609375 -0.65625q-0.953125 0 -1.453125 0.75q-0.5 0.734375 -0.5 2.078125q0 1.359375 0.5 2.0625q0.5 0.6875 1.46875 0.6875zm8.479889 0.90625q-1.578125 0 -2.5 -0.953125q-0.90625 -0.96875 -0.90625 -2.671875q0 -1.734375 0.84375 -2.75q0.859375 -1.015625 2.28125 -1.015625q1.34375 0 2.125 0.890625q0.78125 0.875 0.78125 2.328125l0 0.671875l-4.90625 0q0.03125 1.265625 0.625 1.921875q0.609375 0.640625 1.703125 0.640625q1.140625 0 2.265625 -0.484375l0 0.96875q-0.5625 0.25 -1.078125 0.34375q-0.515625 0.109375 -1.234375 0.109375zm-0.296875 -6.484375q-0.859375 0 -1.375 0.5625q-0.5 0.5625 -0.59375 1.546875l3.734375 0q0 -1.015625 -0.453125 -1.5625q-0.453125 -0.546875 -1.3125 -0.546875zm6.477562 2.703125l-2.4687576 -3.46875l1.21875 0l1.8906326 2.71875l1.875 -2.71875l1.21875 0l-2.484375 3.46875l2.609375 3.65625l-1.21875 0l-2.0 -2.890625l-2.0156326 2.890625l-1.234375 0l2.6093826 -3.65625zm6.342331 3.65625l-1.078125 0l0 -7.125l1.078125 0l0 7.125zm-1.171875 -9.0625q0 -0.375 0.1875 -0.546875q0.1875 -0.171875 0.453125 -0.171875q0.265625 0 0.453125 0.171875q0.1875 0.171875 0.1875 0.546875q0 0.359375 -0.1875 0.546875q-0.1875 0.171875 -0.453125 0.171875q-0.265625 0 -0.453125 -0.171875q-0.1875 -0.1875 -0.1875 -0.546875zm8.3554535 9.0625l0 -4.609375q0 -0.875 -0.40625 -1.296875q-0.390625 -0.4375 -1.234375 -0.4375q-1.125 0 -1.65625 0.609375q-0.515625 0.59375 -0.515625 2.0l0 3.734375l-1.078125 0l0 -7.125l0.890625 0l0.171875 0.96875l0.046875 0q0.328125 -0.53125 0.921875 -0.8125q0.609375 -0.296875 1.34375 -0.296875q1.296875 0 1.9375 0.625q0.65625 0.625 0.65625 1.984375l0 4.65625l-1.078125 0zm9.13353 -7.125l0 0.671875l-1.328125 0.15625q0.1875 0.234375 0.328125 0.609375q0.140625 0.359375 0.140625 0.8125q0 1.0625 -0.71875 1.6875q-0.703125 0.609375 -1.953125 0.609375q-0.328125 0 -0.609375 -0.046875q-0.6875 0.359375 -0.6875 0.921875q0 0.296875 0.234375 0.4375q0.25 0.140625 0.84375 0.140625l1.25 0q1.171875 0 1.78125 0.484375q0.625 0.484375 0.625 1.421875q0 1.171875 -0.953125 1.796875q-0.953125 0.625 -2.765625 0.625q-1.40625 0 -2.171875 -0.53125q-0.75 -0.515625 -0.75 -1.46875q0 -0.640625 0.421875 -1.125q0.421875 -0.46875 1.171875 -0.640625q-0.28125 -0.125 -0.46875 -0.375q-0.171875 -0.265625 -0.171875 -0.609375q0 -0.390625 0.203125 -0.6875q0.203125 -0.296875 0.65625 -0.5625q-0.546875 -0.234375 -0.90625 -0.78125q-0.34375 -0.546875 -0.34375 -1.25q0 -1.171875 0.703125 -1.796875q0.703125 -0.640625 1.984375 -0.640625q0.5625 0 1.015625 0.140625l2.46875 0zm-5.6875 8.328125q0 0.578125 0.484375 0.875q0.484375 0.296875 1.40625 0.296875q1.359375 0 2.0 -0.40625q0.65625 -0.40625 0.65625 -1.109375q0 -0.578125 -0.359375 -0.796875q-0.34375 -0.21875 -1.34375 -0.21875l-1.296875 0q-0.734375 0 -1.140625 0.34375q-0.40625 0.359375 -0.40625 1.015625zm0.578125 -6.046875q0 0.75 0.421875 1.140625q0.4375 0.375 1.1875 0.375q1.578125 0 1.578125 -1.546875q0 -1.59375 -1.59375 -1.59375q-0.765625 0 -1.1875 0.40625q-0.40625 0.40625 -0.40625 1.21875z" fill-rule="nonzero"/><path fill="#000000" d="m78.91646 117.4391l-1.109375 0l0 -9.515625l5.296875 0l0 0.984375l-4.1875 0l0 3.484375l3.9375 0l0 0.984375l-3.9375 0l0 4.0625zm11.75383 -3.578125q0 1.75 -0.875 2.734375q-0.875 0.96875 -2.421875 0.96875q-0.953125 0 -1.703125 -0.4375q-0.734375 -0.453125 -1.140625 -1.296875q-0.40625 -0.84375 -0.40625 -1.96875q0 -1.734375 0.875 -2.703125q0.875 -0.984375 2.421875 -0.984375q1.484375 0 2.359375 1.0q0.890625 1.0 0.890625 2.6875zm-5.421875 0q0 1.375 0.546875 2.09375q0.546875 0.703125 1.59375 0.703125q1.0625 0 1.609375 -0.703125q0.5625 -0.71875 0.5625 -2.09375q0 -1.359375 -0.5625 -2.0625q-0.546875 -0.703125 -1.609375 -0.703125q-1.0625 0 -1.609375 0.703125q-0.53125 0.6875 -0.53125 2.0625zm10.581497 -3.6875q0.46875 0 0.84375 0.078125l-0.140625 1.0q-0.453125 -0.09375 -0.78125 -0.09375q-0.875 0 -1.5 0.703125q-0.609375 0.703125 -0.609375 1.75l0 3.828125l-1.078125 0l0 -7.125l0.890625 0l0.125 1.3125l0.0625 0q0.390625 -0.703125 0.953125 -1.078125q0.5625 -0.375 1.234375 -0.375zm11.268707 7.265625l0 -4.640625q0 -0.859375 -0.359375 -1.28125q-0.359375 -0.421875 -1.140625 -0.421875q-1.0 0 -1.484375 0.578125q-0.484375 0.578125 -0.484375 1.78125l0 3.984375l-1.078125 0l0 -4.640625q0 -0.859375 -0.375 -1.28125q-0.359375 -0.421875 -1.125 -0.421875q-1.015625 0 -1.5 0.609375q-0.46875 0.609375 -0.46875 2.0l0 3.734375l-1.078125 0l0 -7.125l0.890625 0l0.171875 0.96875l0.046875 0q0.3125 -0.515625 0.859375 -0.8125q0.5625 -0.296875 1.25 -0.296875q1.671875 0 2.1875 1.21875l0.046875 0q0.328125 -0.5625 0.921875 -0.890625q0.609375 -0.328125 1.390625 -0.328125q1.203125 0 1.796875 0.625q0.609375 0.625 0.609375 1.984375l0 4.65625l-1.078125 0zm7.6943817 0l-0.21875 -1.015625l-0.046875 0q-0.53125 0.671875 -1.0625 0.90625q-0.53125 0.234375 -1.328125 0.234375q-1.0625 0 -1.671875 -0.546875q-0.59375 -0.546875 -0.59375 -1.546875q0 -2.15625 3.453125 -2.265625l1.21875 -0.046875l0 -0.4375q0 -0.84375 -0.359375 -1.234375q-0.359375 -0.40625 -1.15625 -0.40625q-0.890625 0 -2.015625 0.546875l-0.34375 -0.828125q0.53125 -0.28125 1.15625 -0.4375q0.640625 -0.171875 1.265625 -0.171875q1.28125 0 1.890625 0.5625q0.609375 0.5625 0.609375 1.8125l0 4.875l-0.796875 0zm-2.4375 -0.765625q1.0 0 1.578125 -0.546875q0.578125 -0.5625 0.578125 -1.546875l0 -0.640625l-1.078125 0.03125q-1.28125 0.046875 -1.859375 0.40625q-0.5625 0.359375 -0.5625 1.109375q0 0.578125 0.34375 0.890625q0.359375 0.296875 1.0 0.296875zm7.7718506 0q0.28125 0 0.546875 -0.03125q0.265625 -0.046875 0.421875 -0.09375l0 0.828125q-0.171875 0.078125 -0.515625 0.125q-0.34375 0.0625 -0.609375 0.0625q-2.078125 0 -2.078125 -2.171875l0 -4.25l-1.015625 0l0 -0.515625l1.015625 -0.453125l0.453125 -1.515625l0.625 0l0 1.65625l2.078125 0l0 0.828125l-2.078125 0l0 4.203125q0 0.640625 0.3125 0.984375q0.3125 0.34375 0.84375 0.34375z" fill-rule="nonzero"/><path fill="#000000" fill-opacity="0.0" d="m172.92126 96.63911l69.291336 -0.28346252" fill-rule="evenodd"/><path stroke="#000000" stroke-width="1.0" stroke-linejoin="round" stroke-linecap="butt" d="m172.92126 96.63911l63.29138 -0.25891876" fill-rule="evenodd"/><path fill="#000000" stroke="#000000" stroke-width="1.0" stroke-linecap="butt" d="m236.2194 98.031906l4.531296 -1.6702805l-4.544815 -1.6331558z" fill-rule="evenodd"/><path fill="#000000" fill-opacity="0.0" d="m24.952755 355.29282l0 0c0 -4.838745 3.9225826 -8.761322 8.76133 -8.761322l130.44585 0c2.3236542 0 4.552124 0.9230652 6.1952057 2.5661316c1.6430664 1.6430664 2.5661316 3.8715515 2.5661316 6.1951904l0 35.04428c0 4.838745 -3.9225922 8.761322 -8.761337 8.761322l-130.44585 0c-4.838747 0 -8.76133 -3.922577 -8.76133 -8.761322z" fill-rule="evenodd"/><path stroke="#000000" stroke-width="1.0" stroke-linejoin="round" stroke-linecap="butt" d="m24.952755 355.29282l0 0c0 -4.838745 3.9225826 -8.761322 8.76133 -8.761322l130.44585 0c2.3236542 0 4.552124 0.9230652 6.1952057 2.5661316c1.6430664 1.6430664 2.5661316 3.8715515 2.5661316 6.1951904l0 35.04428c0 4.838745 -3.9225922 8.761322 -8.761337 8.761322l-130.44585 0c-4.838747 0 -8.76133 -3.922577 -8.76133 -8.761322z" fill-rule="evenodd"/><path fill="#000000" d="m57.554707 367.0837q0 1.25 -0.90625 1.953125q-0.90625 0.703125 -2.46875 0.703125q-1.703125 0 -2.609375 -0.4375l0 -1.0625q0.59375 0.25 1.28125 0.390625q0.6875 0.140625 1.359375 0.140625q1.109375 0 1.671875 -0.40625q0.5625 -0.421875 0.5625 -1.171875q0 -0.5 -0.203125 -0.8125q-0.203125 -0.3125 -0.671875 -0.578125q-0.453125 -0.28125 -1.40625 -0.609375q-1.328125 -0.484375 -1.90625 -1.125q-0.5625 -0.65625 -0.5625 -1.703125q0 -1.09375 0.828125 -1.75q0.828125 -0.65625 2.1875 -0.65625q1.421875 0 2.609375 0.53125l-0.34375 0.953125q-1.1875 -0.484375 -2.296875 -0.484375q-0.875 0 -1.375 0.375q-0.484375 0.375 -0.484375 1.046875q0 0.5 0.171875 0.8125q0.1875 0.3125 0.609375 0.578125q0.4375 0.265625 1.328125 0.578125q1.5 0.53125 2.0625 1.15625q0.5625 0.609375 0.5625 1.578125zm4.799225 2.65625q-1.578125 0 -2.5 -0.953125q-0.90625 -0.96875 -0.90625 -2.671875q0 -1.734375 0.84375 -2.75q0.859375 -1.015625 2.28125 -1.015625q1.34375 0 2.1249962 0.890625q0.78125 0.875 0.78125 2.328125l0 0.671875l-4.906246 0q0.03125 1.265625 0.625 1.921875q0.609375 0.640625 1.703125 0.640625q1.140625 0 2.2656212 -0.484375l0 0.96875q-0.5625 0.25 -1.0781212 0.34375q-0.515625 0.109375 -1.234375 0.109375zm-0.296875 -6.484375q-0.859375 0 -1.375 0.5625q-0.5 0.5625 -0.59375 1.546875l3.734375 0q0 -1.015625 -0.453125 -1.5625q-0.453125 -0.546875 -1.3125 -0.546875zm9.1494255 6.359375l-0.21875 -1.015625l-0.046875 0q-0.53125 0.671875 -1.0625 0.90625q-0.53125 0.234375 -1.328125 0.234375q-1.0625 0 -1.671875 -0.546875q-0.59375 -0.546875 -0.59375 -1.546875q0 -2.15625 3.453125 -2.265625l1.21875 -0.046875l0 -0.4375q0 -0.84375 -0.359375 -1.234375q-0.359375 -0.40625 -1.15625 -0.40625q-0.890625 0 -2.015625 0.546875l-0.34375 -0.828125q0.53125 -0.28125 1.15625 -0.4375q0.640625 -0.171875 1.265625 -0.171875q1.28125 0 1.890625 0.5625q0.609375 0.5625 0.609375 1.8125l0 4.875l-0.796875 0zm-2.4375 -0.765625q1.0 0 1.578125 -0.546875q0.578125 -0.5625 0.578125 -1.546875l0 -0.640625l-1.078125 0.03125q-1.28125 0.046875 -1.859375 0.40625q-0.5625 0.359375 -0.5625 1.109375q0 0.578125 0.34375 0.890625q0.359375 0.296875 1.0 0.296875zm8.724976 -6.5q0.46875 0 0.84375 0.078125l-0.140625 1.0q-0.453125 -0.09375 -0.78125 -0.09375q-0.875 0 -1.5 0.703125q-0.609375 0.703125 -0.609375 1.75l0 3.828125l-1.078125 0l0 -7.125l0.890625 0l0.125 1.3125l0.0625 0q0.390625 -0.703125 0.953125 -1.078125q0.5625 -0.375 1.234375 -0.375zm5.0343323 7.390625q-1.546875 0 -2.40625 -0.953125q-0.84375 -0.953125 -0.84375 -2.6875q0 -1.796875 0.859375 -2.765625q0.859375 -0.984375 2.453125 -0.984375q0.515625 0 1.03125 0.109375q0.515625 0.109375 0.8125 0.265625l-0.328125 0.921875q-0.359375 -0.15625 -0.796875 -0.25q-0.421875 -0.09375 -0.734375 -0.09375q-2.171875 0 -2.171875 2.78125q0 1.3125 0.515625 2.015625q0.53125 0.703125 1.578125 0.703125q0.890625 0 1.828125 -0.390625l0 0.96875q-0.71875 0.359375 -1.796875 0.359375zm8.376434 -0.125l0 -4.609375q0 -0.875 -0.40625 -1.296875q-0.390625 -0.4375 -1.234375 -0.4375q-1.125 0 -1.65625 0.609375q-0.515625 0.609375 -0.515625 2.0l0 3.734375l-1.078125 0l0 -10.125l1.078125 0l0 3.0625q0 0.546875 -0.046875 0.921875l0.0625 0q0.328125 -0.515625 0.90625 -0.8125q0.59375 -0.296875 1.34375 -0.296875q1.3125 0 1.96875 0.625q0.65625 0.625 0.65625 1.96875l0 4.65625l-1.078125 0zm6.6179047 0.125q-0.703125 0 -1.28125 -0.25q-0.578125 -0.265625 -0.96875 -0.796875l-0.078125 0q0.078125 0.625 0.078125 1.1875l0 2.9375l-1.078125 0l0 -10.328125l0.890625 0l0.140625 0.96875l0.046875 0q0.421875 -0.578125 0.96875 -0.84375q0.5625 -0.265625 1.28125 -0.265625q1.421875 0 2.1875 0.96875q0.765625 0.96875 0.765625 2.71875q0 1.765625 -0.78125 2.734375q-0.78125 0.96875 -2.171875 0.96875zm-0.15625 -6.46875q-1.09375 0 -1.59375 0.609375q-0.484375 0.59375 -0.5 1.921875l0 0.234375q0 1.515625 0.5 2.15625q0.515625 0.640625 1.609375 0.640625q0.9375 0 1.453125 -0.734375q0.53125 -0.75 0.53125 -2.0625q0 -1.34375 -0.53125 -2.046875q-0.515625 -0.71875 -1.46875 -0.71875zm8.011139 6.46875q-1.578125 0 -2.5 -0.953125q-0.90625 -0.96875 -0.90625 -2.671875q0 -1.734375 0.84375 -2.75q0.859375 -1.015625 2.28125 -1.015625q1.34375 0 2.125 0.890625q0.78125 0.875 0.78125 2.328125l0 0.671875l-4.90625 0q0.03125 1.265625 0.625 1.921875q0.609375 0.640625 1.703125 0.640625q1.140625 0 2.265625 -0.484375l0 0.96875q-0.5625 0.25 -1.078125 0.34375q-0.515625 0.109375 -1.234375 0.109375zm-0.296875 -6.484375q-0.859375 0 -1.375 0.5625q-0.5 0.5625 -0.59375 1.546875l3.734375 0q0 -1.015625 -0.453125 -1.5625q-0.453125 -0.546875 -1.3125 -0.546875zm8.024429 -0.90625q0.46875 0 0.84375 0.078125l-0.140625 1.0q-0.453125 -0.09375 -0.78125 -0.09375q-0.875 0 -1.5 0.703125q-0.609375 0.703125 -0.609375 1.75l0 3.828125l-1.078125 0l0 -7.125l0.890625 0l0.125 1.3125l0.0625 0q0.390625 -0.703125 0.953125 -1.078125q0.5625 -0.375 1.234375 -0.375zm3.2530823 7.265625l-1.078125 0l0 -7.125l1.078125 0l0 7.125zm-1.171875 -9.0625q0 -0.375 0.1875 -0.546875q0.1875 -0.171875 0.453125 -0.171875q0.265625 0 0.453125 0.171875q0.1875 0.171875 0.1875 0.546875q0 0.359375 -0.1875 0.546875q-0.1875 0.171875 -0.453125 0.171875q-0.265625 0 -0.453125 -0.171875q-0.1875 -0.1875 -0.1875 -0.546875zm6.4804535 9.1875q-1.578125 0 -2.5 -0.953125q-0.90625 -0.96875 -0.90625 -2.671875q0 -1.734375 0.84375 -2.75q0.859375 -1.015625 2.28125 -1.015625q1.34375 0 2.125 0.890625q0.78125 0.875 0.78125 2.328125l0 0.671875l-4.90625 0q0.03125 1.265625 0.625 1.921875q0.609375 0.640625 1.703125 0.640625q1.140625 0 2.265625 -0.484375l0 0.96875q-0.5625 0.25 -1.078125 0.34375q-0.515625 0.109375 -1.234375 0.109375zm-0.296875 -6.484375q-0.859375 0 -1.375 0.5625q-0.5 0.5625 -0.59375 1.546875l3.734375 0q0 -1.015625 -0.453125 -1.5625q-0.453125 -0.546875 -1.3125 -0.546875zm9.649429 6.359375l0 -4.609375q0 -0.875 -0.40625 -1.296875q-0.390625 -0.4375 -1.234375 -0.4375q-1.125 0 -1.65625 0.609375q-0.515625 0.59375 -0.515625 2.0l0 3.734375l-1.078125 0l0 -7.125l0.890625 0l0.171875 0.96875l0.046875 0q0.328125 -0.53125 0.921875 -0.8125q0.609375 -0.296875 1.34375 -0.296875q1.296875 0 1.9375 0.625q0.65625 0.625 0.65625 1.984375l0 4.65625l-1.078125 0zm6.1491547 0.125q-1.546875 0 -2.40625 -0.953125q-0.84375 -0.953125 -0.84375 -2.6875q0 -1.796875 0.859375 -2.765625q0.859375 -0.984375 2.453125 -0.984375q0.515625 0 1.03125 0.109375q0.515625 0.109375 0.8125 0.265625l-0.328125 0.921875q-0.359375 -0.15625 -0.796875 -0.25q-0.421875 -0.09375 -0.734375 -0.09375q-2.171875 0 -2.171875 2.78125q0 1.3125 0.515625 2.015625q0.53125 0.703125 1.578125 0.703125q0.890625 0 1.828125 -0.390625l0 0.96875q-0.71875 0.359375 -1.796875 0.359375zm6.5014343 0q-1.578125 0 -2.5 -0.953125q-0.90625 -0.96875 -0.90625 -2.671875q0 -1.734375 0.84375 -2.75q0.859375 -1.015625 2.28125 -1.015625q1.34375 0 2.125 0.890625q0.78125 0.875 0.78125 2.328125l0 0.671875l-4.90625 0q0.03125 1.265625 0.625 1.921875q0.609375 0.640625 1.703125 0.640625q1.140625 0 2.265625 -0.484375l0 0.96875q-0.5625 0.25 -1.078125 0.34375q-0.515625 0.109375 -1.234375 0.109375zm-0.296875 -6.484375q-0.859375 0 -1.375 0.5625q-0.5 0.5625 -0.59375 1.546875l3.734375 0q0 -1.015625 -0.453125 -1.5625q-0.453125 -0.546875 -1.3125 -0.546875z" fill-rule="nonzero"/><path fill="#000000" d="m43.926907 385.61496l-1.109375 0l0 -8.53125l-3.015625 0l0 -0.984375l7.140625 0l0 0.984375l-3.015625 0l0 8.53125zm7.5453033 -7.265625q0.46875 0 0.84375 0.078125l-0.140625 1.0q-0.453125 -0.09375 -0.78125 -0.09375q-0.875 0 -1.5 0.703125q-0.609375 0.703125 -0.609375 1.75l0 3.828125l-1.078125 0l0 -7.125l0.890625 0l0.125 1.3125l0.0625 0q0.390625 -0.703125 0.953125 -1.078125q0.5625 -0.375 1.234375 -0.375zm6.5655823 7.265625l-0.21875 -1.015625l-0.046875 0q-0.53125 0.671875 -1.0625 0.90625q-0.53125 0.234375 -1.328125 0.234375q-1.0625 0 -1.671875 -0.546875q-0.59375 -0.546875 -0.59375 -1.546875q0 -2.15625 3.453125 -2.265625l1.21875 -0.046875l0 -0.4375q0 -0.84375 -0.359375 -1.234375q-0.359375 -0.40625 -1.15625 -0.40625q-0.890625 0 -2.015625 0.546875l-0.34375 -0.828125q0.53125 -0.28125 1.15625 -0.4375q0.640625 -0.171875 1.265625 -0.171875q1.28125 0 1.890625 0.5625q0.609375 0.5625 0.609375 1.8125l0 4.875l-0.796875 0zm-2.4375 -0.765625q1.0 0 1.578125 -0.546875q0.578125 -0.5625 0.578125 -1.546875l0 -0.640625l-1.078125 0.03125q-1.28125 0.046875 -1.859375 0.40625q-0.5625 0.359375 -0.5625 1.109375q0 0.578125 0.34375 0.890625q0.359375 0.296875 1.0 0.296875zm8.318726 0.890625q-1.546875 0 -2.40625 -0.953125q-0.84375 -0.953125 -0.84375 -2.6875q0 -1.796875 0.859375 -2.765625q0.859375 -0.984375 2.453125 -0.984375q0.5156212 0 1.0312462 0.109375q0.515625 0.109375 0.8125 0.265625l-0.328125 0.921875q-0.359375 -0.15625 -0.796875 -0.25q-0.421875 -0.09375 -0.7343712 -0.09375q-2.171875 0 -2.171875 2.78125q0 1.3125 0.515625 2.015625q0.53125 0.703125 1.578125 0.703125q0.8906212 0 1.8281212 -0.390625l0 0.96875q-0.71875 0.359375 -1.7968712 0.359375zm4.5639305 -3.78125q0.28125 -0.390625 0.84375 -1.03125l2.3125 -2.4375l1.28125 0l-2.890625 3.03125l3.09375 4.09375l-1.3125 0l-2.515625 -3.375l-0.8125 0.703125l0 2.671875l-1.078125 0l0 -10.125l1.078125 0l0 5.375q0 0.34375 -0.0625 1.09375l0.0625 0zm8.933472 3.78125q-1.578125 0 -2.5 -0.953125q-0.90625 -0.96875 -0.90625 -2.671875q0 -1.734375 0.84375 -2.75q0.859375 -1.015625 2.28125 -1.015625q1.34375 0 2.125 0.890625q0.78125 0.875 0.78125 2.328125l0 0.671875l-4.90625 0q0.03125 1.265625 0.625 1.921875q0.609375 0.640625 1.703125 0.640625q1.140625 0 2.265625 -0.484375l0 0.96875q-0.5625 0.25 -1.078125 0.34375q-0.515625 0.109375 -1.234375 0.109375zm-0.296875 -6.484375q-0.859375 0 -1.375 0.5625q-0.5 0.5625 -0.59375 1.546875l3.734375 0q0 -1.015625 -0.453125 -1.5625q-0.453125 -0.546875 -1.3125 -0.546875zm8.024429 -0.90625q0.46875 0 0.84375 0.078125l-0.140625 1.0q-0.453125 -0.09375 -0.78125 -0.09375q-0.875 0 -1.5 0.703125q-0.609375 0.703125 -0.609375 1.75l0 3.828125l-1.078125 0l0 -7.125l0.890625 0l0.125 1.3125l0.0625 0q0.390625 -0.703125 0.953125 -1.078125q0.5625 -0.375 1.234375 -0.375zm5.809021 7.265625l0 -9.515625l1.109375 0l0 9.515625l-1.109375 0zm8.434753 0l0 -4.609375q0 -0.875 -0.40625 -1.296875q-0.390625 -0.4375 -1.234375 -0.4375q-1.125 0 -1.65625 0.609375q-0.515625 0.59375 -0.515625 2.0l0 3.734375l-1.078125 0l0 -7.125l0.890625 0l0.171875 0.96875l0.046875 0q0.328125 -0.53125 0.921875 -0.8125q0.609375 -0.296875 1.34375 -0.296875q1.296875 0 1.9375 0.625q0.65625 0.625 0.65625 1.984375l0 4.65625l-1.078125 0zm5.6022797 -0.765625q0.28125 0 0.546875 -0.03125q0.265625 -0.046875 0.421875 -0.09375l0 0.828125q-0.171875 0.078125 -0.515625 0.125q-0.34375 0.0625 -0.609375 0.0625q-2.078125 0 -2.078125 -2.171875l0 -4.25l-1.015625 0l0 -0.515625l1.015625 -0.453125l0.453125 -1.515625l0.625 0l0 1.65625l2.078125 0l0 0.828125l-2.078125 0l0 4.203125q0 0.640625 0.3125 0.984375q0.3125 0.34375 0.84375 0.34375zm5.408325 0.890625q-1.578125 0 -2.5 -0.953125q-0.90625 -0.96875 -0.90625 -2.671875q0 -1.734375 0.84375 -2.75q0.859375 -1.015625 2.28125 -1.015625q1.34375 0 2.125 0.890625q0.78125 0.875 0.78125 2.328125l0 0.671875l-4.90625 0q0.03125 1.265625 0.625 1.921875q0.609375 0.640625 1.703125 0.640625q1.140625 0 2.265625 -0.484375l0 0.96875q-0.5625 0.25 -1.078125 0.34375q-0.515625 0.109375 -1.234375 0.109375zm-0.296875 -6.484375q-0.859375 0 -1.375 0.5625q-0.5 0.5625 -0.59375 1.546875l3.734375 0q0 -1.015625 -0.453125 -1.5625q-0.453125 -0.546875 -1.3125 -0.546875zm10.602554 -0.765625l0 0.671875l-1.328125 0.15625q0.1875 0.234375 0.328125 0.609375q0.140625 0.359375 0.140625 0.8125q0 1.0625 -0.71875 1.6875q-0.703125 0.609375 -1.953125 0.609375q-0.328125 0 -0.609375 -0.046875q-0.6875 0.359375 -0.6875 0.921875q0 0.296875 0.234375 0.4375q0.25 0.140625 0.84375 0.140625l1.25 0q1.171875 0 1.78125 0.484375q0.625 0.484375 0.625 1.421875q0 1.171875 -0.953125 1.796875q-0.953125 0.625 -2.765625 0.625q-1.40625 0 -2.171875 -0.53125q-0.75 -0.515625 -0.75 -1.46875q0 -0.640625 0.421875 -1.125q0.421875 -0.46875 1.171875 -0.640625q-0.28125 -0.125 -0.46875 -0.375q-0.171875 -0.265625 -0.171875 -0.609375q0 -0.390625 0.203125 -0.6875q0.203125 -0.296875 0.65625 -0.5625q-0.546875 -0.234375 -0.90625 -0.78125q-0.34375 -0.546875 -0.34375 -1.25q0 -1.171875 0.703125 -1.796875q0.703125 -0.640625 1.984375 -0.640625q0.5625 0 1.015625 0.140625l2.46875 0zm-5.6875 8.328125q0 0.578125 0.484375 0.875q0.484375 0.296875 1.40625 0.296875q1.359375 0 2.0 -0.40625q0.65625 -0.40625 0.65625 -1.109375q0 -0.578125 -0.359375 -0.796875q-0.34375 -0.21875 -1.34375 -0.21875l-1.296875 0q-0.734375 0 -1.140625 0.34375q-0.40625 0.359375 -0.40625 1.015625zm0.578125 -6.046875q0 0.75 0.421875 1.140625q0.4375 0.375 1.1875 0.375q1.578125 0 1.578125 -1.546875q0 -1.59375 -1.59375 -1.59375q-0.765625 0 -1.1875 0.40625q-0.40625 0.40625 -0.40625 1.21875zm9.833084 -2.421875q0.46875 0 0.84375 0.078125l-0.140625 1.0q-0.453125 -0.09375 -0.78125 -0.09375q-0.875 0 -1.5 0.703125q-0.609375 0.703125 -0.609375 1.75l0 3.828125l-1.078125 0l0 -7.125l0.890625 0l0.125 1.3125l0.0625 0q0.390625 -0.703125 0.953125 -1.078125q0.5625 -0.375 1.234375 -0.375zm6.56559 7.265625l-0.21875 -1.015625l-0.046875 0q-0.53125 0.671875 -1.0625 0.90625q-0.53125 0.234375 -1.328125 0.234375q-1.0625 0 -1.6718826 -0.546875q-0.59375 -0.546875 -0.59375 -1.546875q0 -2.15625 3.4531326 -2.265625l1.21875 -0.046875l0 -0.4375q0 -0.84375 -0.359375 -1.234375q-0.359375 -0.40625 -1.15625 -0.40625q-0.890625 0 -2.015625 0.546875l-0.34375763 -0.828125q0.5312576 -0.28125 1.1562576 -0.4375q0.640625 -0.171875 1.265625 -0.171875q1.28125 0 1.890625 0.5625q0.609375 0.5625 0.609375 1.8125l0 4.875l-0.796875 0zm-2.4375 -0.765625q1.0 0 1.578125 -0.546875q0.578125 -0.5625 0.578125 -1.546875l0 -0.640625l-1.078125 0.03125q-1.28125 0.046875 -1.859375 0.40625q-0.5625 0.359375 -0.5625 1.109375q0 0.578125 0.34375 0.890625q0.359375 0.296875 1.0 0.296875zm7.7718506 0q0.28125 0 0.546875 -0.03125q0.265625 -0.046875 0.421875 -0.09375l0 0.828125q-0.171875 0.078125 -0.515625 0.125q-0.34375 0.0625 -0.609375 0.0625q-2.078125 0 -2.078125 -2.171875l0 -4.25l-1.015625 0l0 -0.515625l1.015625 -0.453125l0.453125 -1.515625l0.625 0l0 1.65625l2.078125 0l0 0.828125l-2.078125 0l0 4.203125q0 0.640625 0.3125 0.984375q0.3125 0.34375 0.84375 0.34375zm3.4708252 0.765625l-1.078125 0l0 -7.125l1.078125 0l0 7.125zm-1.171875 -9.0625q0 -0.375 0.1875 -0.546875q0.1875 -0.171875 0.453125 -0.171875q0.265625 0 0.453125 0.171875q0.1875 0.171875 0.1875 0.546875q0 0.359375 -0.1875 0.546875q-0.1875 0.171875 -0.453125 0.171875q-0.265625 0 -0.453125 -0.171875q-0.1875 -0.1875 -0.1875 -0.546875zm9.6210785 5.484375q0 1.75 -0.875 2.734375q-0.875 0.96875 -2.421875 0.96875q-0.953125 0 -1.703125 -0.4375q-0.734375 -0.453125 -1.140625 -1.296875q-0.40625 -0.84375 -0.40625 -1.96875q0 -1.734375 0.875 -2.703125q0.875 -0.984375 2.421875 -0.984375q1.484375 0 2.359375 1.0q0.890625 1.0 0.890625 2.6875zm-5.421875 0q0 1.375 0.546875 2.09375q0.546875 0.703125 1.59375 0.703125q1.0625 0 1.609375 -0.703125q0.5625 -0.71875 0.5625 -2.09375q0 -1.359375 -0.5625 -2.0625q-0.546875 -0.703125 -1.609375 -0.703125q-1.0625 0 -1.609375 0.703125q-0.53125 0.6875 -0.53125 2.0625zm12.206482 3.578125l0 -4.609375q0 -0.875 -0.40625 -1.296875q-0.39060974 -0.4375 -1.2343597 -0.4375q-1.125 0 -1.65625 0.609375q-0.515625 0.59375 -0.515625 2.0l0 3.734375l-1.078125 0l0 -7.125l0.890625 0l0.171875 0.96875l0.046875 0q0.328125 -0.53125 0.921875 -0.8125q0.609375 -0.296875 1.34375 -0.296875q1.2968597 0 1.9374847 0.625q0.65625 0.625 0.65625 1.984375l0 4.65625l-1.078125 0z" fill-rule="nonzero"/><path fill="#000000" fill-opacity="0.0" d="m172.92126 372.81497l65.03937 -0.28347778" fill-rule="evenodd"/><path stroke="#000000" stroke-width="1.0" stroke-linejoin="round" stroke-linecap="butt" d="m172.92126 372.81497l59.03943 -0.25732422" fill-rule="evenodd"/><path fill="#000000" stroke="#000000" stroke-width="1.0" stroke-linecap="butt" d="m231.96788 374.20935l4.5308685 -1.6714783l-4.5452576 -1.631958z" fill-rule="evenodd"/><path fill="#b7b7b7" d="m635.48553 96.35696l0 0c0 -9.584534 7.7698364 -17.354332 17.35437 -17.354332l0 0c4.602661 0 9.016785 1.8283997 12.271362 5.0829697c3.2545776 3.2545624 5.082947 7.668709 5.082947 12.271362l0 0c0 9.584534 -7.7697754 17.354332 -17.35431 17.354332l0 0c-9.584534 0 -17.35437 -7.7697983 -17.35437 -17.354332z" fill-rule="evenodd"/><path stroke="#000000" stroke-width="1.0" stroke-linejoin="round" stroke-linecap="butt" d="m635.48553 96.35696l0 0c0 -9.584534 7.7698364 -17.354332 17.35437 -17.354332l0 0c4.602661 0 9.016785 1.8283997 12.271362 5.0829697c3.2545776 3.2545624 5.082947 7.668709 5.082947 12.271362l0 0c0 9.584534 -7.7697754 17.354332 -17.35431 17.354332l0 0c-9.584534 0 -17.35437 -7.7697983 -17.35437 -17.354332z" fill-rule="evenodd"/><path fill="#000000" fill-opacity="0.0" d="m665.4829 70.073494l120.47247 0l0 52.566925l-120.47247 0z" fill-rule="evenodd"/><path fill="#000000" d="m684.33685 89.34224q0 1.25 -0.90625 1.953125q-0.90625 0.703125 -2.46875 0.703125q-1.703125 0 -2.609375 -0.4375l0 -1.0625q0.59375 0.25 1.28125 0.390625q0.6875 0.140625 1.359375 0.140625q1.109375 0 1.671875 -0.40625q0.5625 -0.421875 0.5625 -1.171875q0 -0.5 -0.203125 -0.8125q-0.203125 -0.3125 -0.671875 -0.578125q-0.453125 -0.28125 -1.40625 -0.609375q-1.328125 -0.484375 -1.90625 -1.125q-0.5625 -0.65625 -0.5625 -1.703125q0 -1.09375 0.828125 -1.75q0.828125 -0.65625 2.1875 -0.65625q1.421875 0 2.609375 0.53125l-0.34375 0.953125q-1.1875 -0.484375 -2.296875 -0.484375q-0.875 0 -1.375 0.375q-0.484375 0.375 -0.484375 1.046875q0 0.5 0.171875 0.8125q0.1875 0.3125 0.609375 0.578125q0.4375 0.265625 1.328125 0.578125q1.5 0.53125 2.0625 1.15625q0.5625 0.609375 0.5625 1.578125zm4.7992554 2.65625q-1.578125 0 -2.5 -0.953125q-0.90625 -0.96875 -0.90625 -2.671875q0 -1.734375 0.84375 -2.75q0.859375 -1.015625 2.28125 -1.015625q1.34375 0 2.125 0.890625q0.78125 0.875 0.78125 2.328125l0 0.671875l-4.90625 0q0.03125 1.265625 0.625 1.921875q0.609375 0.640625 1.703125 0.640625q1.140625 0 2.265625 -0.484375l0 0.96875q-0.5625 0.25 -1.078125 0.34375q-0.515625 0.109375 -1.234375 0.109375zm-0.296875 -6.484375q-0.859375 0 -1.375 0.5625q-0.5 0.5625 -0.59375 1.546875l3.734375 0q0 -1.015625 -0.453125 -1.5625q-0.453125 -0.546875 -1.3125 -0.546875zm9.149414 6.359375l-0.21875 -1.015625l-0.046875 0q-0.53125 0.671875 -1.0625 0.90625q-0.53125 0.234375 -1.328125 0.234375q-1.0625 0 -1.671875 -0.546875q-0.59375 -0.546875 -0.59375 -1.546875q0 -2.15625 3.453125 -2.265625l1.21875 -0.046875l0 -0.4375q0 -0.84375 -0.359375 -1.234375q-0.359375 -0.40625 -1.15625 -0.40625q-0.890625 0 -2.015625 0.546875l-0.34375 -0.828125q0.53125 -0.28125 1.15625 -0.4375q0.640625 -0.171875 1.265625 -0.171875q1.28125 0 1.890625 0.5625q0.609375 0.5625 0.609375 1.8125l0 4.875l-0.796875 0zm-2.4375 -0.765625q1.0 0 1.578125 -0.546875q0.578125 -0.5625 0.578125 -1.546875l0 -0.640625l-1.078125 0.03125q-1.28125 0.046875 -1.859375 0.40625q-0.5625 0.359375 -0.5625 1.109375q0 0.578125 0.34375 0.890625q0.359375 0.296875 1.0 0.296875zm8.724976 -6.5q0.46875 0 0.84375 0.078125l-0.140625 1.0q-0.453125 -0.09375 -0.78125 -0.09375q-0.875 0 -1.5 0.703125q-0.609375 0.703125 -0.609375 1.75l0 3.828125l-1.078125 0l0 -7.125l0.890625 0l0.125 1.3125l0.0625 0q0.390625 -0.703125 0.953125 -1.078125q0.5625 -0.375 1.234375 -0.375zm5.0343018 7.390625q-1.546875 0 -2.40625 -0.953125q-0.84375 -0.953125 -0.84375 -2.6875q0 -1.796875 0.859375 -2.765625q0.859375 -0.984375 2.453125 -0.984375q0.515625 0 1.03125 0.109375q0.515625 0.109375 0.8125 0.265625l-0.328125 0.921875q-0.359375 -0.15625 -0.796875 -0.25q-0.421875 -0.09375 -0.734375 -0.09375q-2.171875 0 -2.171875 2.78125q0 1.3125 0.515625 2.015625q0.53125 0.703125 1.578125 0.703125q0.890625 0 1.828125 -0.390625l0 0.96875q-0.71875 0.359375 -1.796875 0.359375zm8.376465 -0.125l0 -4.609375q0 -0.875 -0.40625 -1.296875q-0.390625 -0.4375 -1.234375 -0.4375q-1.125 0 -1.65625 0.609375q-0.515625 0.609375 -0.515625 2.0l0 3.734375l-1.078125 0l0 -10.125l1.078125 0l0 3.0625q0 0.546875 -0.046875 0.921875l0.0625 0q0.328125 -0.515625 0.90625 -0.8125q0.59375 -0.296875 1.34375 -0.296875q1.3125 0 1.96875 0.625q0.65625 0.625 0.65625 1.96875l0 4.65625l-1.078125 0zm6.61792 0.125q-0.703125 0 -1.28125 -0.25q-0.578125 -0.265625 -0.96875 -0.796875l-0.078125 0q0.078125 0.625 0.078125 1.1875l0 2.9375l-1.078125 0l0 -10.328125l0.890625 0l0.140625 0.96875l0.046875 0q0.421875 -0.578125 0.96875 -0.84375q0.5625 -0.265625 1.28125 -0.265625q1.421875 0 2.1875 0.96875q0.765625 0.96875 0.765625 2.71875q0 1.765625 -0.78125 2.734375q-0.78125 0.96875 -2.171875 0.96875zm-0.15625 -6.46875q-1.09375 0 -1.59375 0.609375q-0.484375 0.59375 -0.5 1.921875l0 0.234375q0 1.515625 0.5 2.15625q0.515625 0.640625 1.609375 0.640625q0.9375 0 1.453125 -0.734375q0.53125 -0.75 0.53125 -2.0625q0 -1.34375 -0.53125 -2.046875q-0.515625 -0.71875 -1.46875 -0.71875zm8.011108 6.46875q-1.578125 0 -2.5 -0.953125q-0.90625 -0.96875 -0.90625 -2.671875q0 -1.734375 0.84375 -2.75q0.859375 -1.015625 2.28125 -1.015625q1.34375 0 2.125 0.890625q0.78125 0.875 0.78125 2.328125l0 0.671875l-4.90625 0q0.03125 1.265625 0.625 1.921875q0.609375 0.640625 1.703125 0.640625q1.140625 0 2.265625 -0.484375l0 0.96875q-0.5625 0.25 -1.078125 0.34375q-0.515625 0.109375 -1.234375 0.109375zm-0.296875 -6.484375q-0.859375 0 -1.375 0.5625q-0.5 0.5625 -0.59375 1.546875l3.734375 0q0 -1.015625 -0.453125 -1.5625q-0.453125 -0.546875 -1.3125 -0.546875zm8.024414 -0.90625q0.46875 0 0.84375 0.078125l-0.140625 1.0q-0.453125 -0.09375 -0.78125 -0.09375q-0.875 0 -1.5 0.703125q-0.609375 0.703125 -0.609375 1.75l0 3.828125l-1.078125 0l0 -7.125l0.890625 0l0.125 1.3125l0.0625 0q0.390625 -0.703125 0.953125 -1.078125q0.5625 -0.375 1.234375 -0.375zm3.2531128 7.265625l-1.078125 0l0 -7.125l1.078125 0l0 7.125zm-1.171875 -9.0625q0 -0.375 0.1875 -0.546875q0.1875 -0.171875 0.453125 -0.171875q0.265625 0 0.453125 0.171875q0.1875 0.171875 0.1875 0.546875q0 0.359375 -0.1875 0.546875q-0.1875 0.171875 -0.453125 0.171875q-0.265625 0 -0.453125 -0.171875q-0.1875 -0.1875 -0.1875 -0.546875zm6.4804688 9.1875q-1.578125 0 -2.5 -0.953125q-0.90625 -0.96875 -0.90625 -2.671875q0 -1.734375 0.84375 -2.75q0.859375 -1.015625 2.28125 -1.015625q1.34375 0 2.125 0.890625q0.78125 0.875 0.78125 2.328125l0 0.671875l-4.90625 0q0.03125 1.265625 0.625 1.921875q0.609375 0.640625 1.703125 0.640625q1.140625 0 2.265625 -0.484375l0 0.96875q-0.5625 0.25 -1.078125 0.34375q-0.515625 0.109375 -1.234375 0.109375zm-0.296875 -6.484375q-0.859375 0 -1.375 0.5625q-0.5 0.5625 -0.59375 1.546875l3.734375 0q0 -1.015625 -0.453125 -1.5625q-0.453125 -0.546875 -1.3125 -0.546875zm9.649414 6.359375l0 -4.609375q0 -0.875 -0.40625 -1.296875q-0.390625 -0.4375 -1.234375 -0.4375q-1.125 0 -1.65625 0.609375q-0.515625 0.59375 -0.515625 2.0l0 3.734375l-1.078125 0l0 -7.125l0.890625 0l0.171875 0.96875l0.046875 0q0.328125 -0.53125 0.921875 -0.8125q0.609375 -0.296875 1.34375 -0.296875q1.296875 0 1.9375 0.625q0.65625 0.625 0.65625 1.984375l0 4.65625l-1.078125 0zm6.14917 0.125q-1.546875 0 -2.40625 -0.953125q-0.84375 -0.953125 -0.84375 -2.6875q0 -1.796875 0.859375 -2.765625q0.859375 -0.984375 2.453125 -0.984375q0.515625 0 1.03125 0.109375q0.515625 0.109375 0.8125 0.265625l-0.328125 0.921875q-0.359375 -0.15625 -0.796875 -0.25q-0.421875 -0.09375 -0.734375 -0.09375q-2.171875 0 -2.171875 2.78125q0 1.3125 0.515625 2.015625q0.53125 0.703125 1.578125 0.703125q0.890625 0 1.828125 -0.390625l0 0.96875q-0.71875 0.359375 -1.796875 0.359375zm6.501404 0q-1.578125 0 -2.5 -0.953125q-0.90625 -0.96875 -0.90625 -2.671875q0 -1.734375 0.84375 -2.75q0.859375 -1.015625 2.28125 -1.015625q1.34375 0 2.125 0.890625q0.78125 0.875 0.78125 2.328125l0 0.671875l-4.90625 0q0.03125 1.265625 0.625 1.921875q0.609375 0.640625 1.703125 0.640625q1.140625 0 2.265625 -0.484375l0 0.96875q-0.5625 0.25 -1.078125 0.34375q-0.515625 0.109375 -1.234375 0.109375zm-0.296875 -6.484375q-0.859375 0 -1.375 0.5625q-0.5 0.5625 -0.59375 1.546875l3.734375 0q0 -1.015625 -0.453125 -1.5625q-0.453125 -0.546875 -1.3125 -0.546875z" fill-rule="nonzero"/><path fill="#000000" d="m722.9132 107.87349l-1.171875 -3.03125l-3.8125 0l-1.171875 3.03125l-1.125 0l3.765625 -9.546875l0.921875 0l3.75 9.546875l-1.15625 0zm-1.515625 -4.015625l-1.109375 -2.953125q-0.21875 -0.5625 -0.453125 -1.375q-0.140625 0.625 -0.40625 1.375l-1.109375 2.953125l3.078125 0zm10.012329 -2.71875q0 1.4375 -0.984375 2.21875q-0.984375 0.78125 -2.828125 0.78125l-1.109375 0l0 3.734375l-1.109375 0l0 -9.515625l2.46875 0q3.5625 0 3.5625 2.78125zm-4.921875 2.046875l0.984375 0q1.46875 0 2.125 -0.46875q0.671875 -0.484375 0.671875 -1.53125q0 -0.953125 -0.625 -1.40625q-0.625 -0.46875 -1.921875 -0.46875l-1.234375 0l0 3.875zm6.914856 4.6875l0 -9.515625l1.109375 0l0 9.515625l-1.109375 0z" fill-rule="nonzero"/></g></svg>